<svg width="2816" height="1152" viewBox="0 0 2816 1152" fill="none" xmlns="http://www.w3.org/2000/svg">
<path d="M1509.31 800.396H1125.78L1055.94 870.231H770.383" stroke="white" stroke-width="24" stroke-linecap="round" stroke-linejoin="round" stroke-dasharray="32 64"/>
<path d="M512 496C512 375.32 512 314.981 549.49 277.49C586.981 240 647.32 240 768 240V240C888.68 240 949.019 240 986.51 277.49C1024 314.981 1024 375.32 1024 496V496C1024 616.68 1024 677.019 986.51 714.51C949.019 752 888.68 752 768 752V752C647.32 752 586.981 752 549.49 714.51C512 677.019 512 616.68 512 496V496Z" fill="white"/>
<path d="M704 856.061C704 825.891 704 810.806 713.373 801.433C722.745 792.061 737.83 792.061 768 792.061V792.061C798.17 792.061 813.255 792.061 822.627 801.433C832 810.806 832 825.891 832 856.061V856.061C832 886.23 832 901.315 822.627 910.688C813.255 920.061 798.17 920.061 768 920.061V920.061C737.83 920.061 722.745 920.061 713.373 910.688C704 901.315 704 886.23 704 856.061V856.061Z" fill="white"/>
<path d="M752 976L752 176C752 167.163 759.163 160 768 160C776.837 160 784 167.163 784 176L784 976C784 984.837 776.837 992 768 992C759.163 992 752 984.837 752 976Z" fill="white"/>
<path d="M689.105 666.624C684.838 666.624 682.705 664.491 682.705 660.224V560.384L614.097 492.032C612.902 490.667 612.134 489.472 611.793 488.448C611.622 487.253 611.537 485.888 611.537 484.352V331.776C611.537 327.509 613.67 325.376 617.937 325.376H690.385C694.651 325.376 696.785 327.509 696.785 331.776V482.656C696.785 484.865 698.575 486.656 700.785 486.656H750.129C752.338 486.656 754.129 484.865 754.129 482.656V331.776C754.129 327.509 756.262 325.376 760.529 325.376H832.977C837.243 325.376 839.377 327.509 839.377 331.776V484.352C839.377 485.888 839.291 487.253 839.121 488.448C838.95 489.472 838.182 490.667 836.817 492.032L768.465 560.384V660.224C768.465 664.491 766.331 666.624 762.065 666.624H689.105Z" fill="#AE0017"/>
<path d="M882.186 666.623C881.2 666.623 880.708 666.13 880.708 665.145V654.025C880.708 653.513 880.727 653.099 880.767 652.783C880.846 652.468 881.082 652.212 881.476 652.015L896.972 644.917V634.389L881.713 624.926C881.043 624.532 880.708 623.94 880.708 623.152V601.446C880.708 600.815 880.747 600.361 880.826 600.085C880.905 599.77 881.2 599.435 881.713 599.08L897.268 588.552C897.662 588.316 898.017 588.138 898.333 588.02C898.688 587.862 899.121 587.783 899.634 587.783H915.603C916.589 587.783 917.082 588.276 917.082 589.262V599.316C917.082 600.184 916.786 600.775 916.194 601.091L900.698 607.478V618.42L916.194 627.292C916.786 627.568 917.082 628.199 917.082 629.185V654.913C917.082 655.228 917.022 655.563 916.904 655.918C916.825 656.273 916.628 656.529 916.313 656.687L897.741 665.914C897.505 666.032 897.209 666.19 896.854 666.387C896.539 666.544 896.223 666.623 895.908 666.623H882.186Z" fill="#19191D"/>
<path d="M829.874 666.623C828.967 666.623 828.178 666.288 827.508 665.618L815.679 653.789C815.009 653.158 814.673 652.369 814.673 651.423V602.924C814.673 602.017 815.009 601.229 815.679 600.558L827.508 588.73C828.178 588.099 828.967 587.783 829.874 587.783H853.118C854.064 587.783 854.852 588.099 855.483 588.73L867.312 600.558C867.983 601.229 868.318 602.017 868.318 602.924V651.423C868.318 652.369 867.983 653.158 867.312 653.789L855.483 665.618C854.852 666.288 854.064 666.623 853.118 666.623H829.874ZM836.853 650.832H846.138C847.794 650.832 848.623 649.728 848.623 647.52V606.887C848.623 604.639 847.794 603.516 846.138 603.516H836.853C835.236 603.516 834.428 604.639 834.428 606.887V647.52C834.428 649.728 835.236 650.832 836.853 650.832Z" fill="#19191D"/>
<path d="M749.662 666.623C748.676 666.623 748.183 666.13 748.183 665.145V610.317C748.183 609.805 748.38 609.213 748.775 608.543L762.792 588.67C763.226 588.079 763.857 587.783 764.685 587.783H784.262C785.129 587.783 785.76 588.079 786.154 588.67L800.231 608.543C800.625 609.095 800.822 609.687 800.822 610.317V665.145C800.822 666.13 800.329 666.623 799.344 666.623H782.606C781.62 666.623 781.127 666.13 781.127 665.145V640.008H767.938V665.145C767.938 666.13 767.445 666.623 766.459 666.623H749.662ZM774.503 627.292C778.13 627.292 780.575 626.503 781.837 624.926C783.138 623.31 783.789 620.254 783.789 615.759C783.789 611.264 783.138 608.228 781.837 606.65C780.575 605.034 778.13 604.225 774.503 604.225C770.915 604.225 768.47 605.034 767.169 606.65C765.907 608.228 765.276 611.264 765.276 615.759C765.276 620.254 765.907 623.31 767.169 624.926C768.47 626.503 770.915 627.292 774.503 627.292Z" fill="#19191D"/>
<path d="M717.214 849.535C719.347 827.009 720.414 815.745 728.074 809.41C735.735 803.074 746.999 804.141 769.525 806.274V806.274C792.052 808.408 803.315 809.474 809.651 817.135C815.986 824.796 814.919 836.059 812.786 858.586V858.586C810.653 881.112 809.586 892.376 801.925 898.711C794.265 905.047 783.001 903.98 760.475 901.847V901.847C737.948 899.713 726.685 898.647 720.349 890.986C714.014 883.325 715.08 872.062 717.214 849.535V849.535Z" fill="#AE0017"/>
<path d="M1150.59 427.033L1125.98 385.718H1144.59L1163.39 419.224H1150.32L1169.11 385.718H1187.36L1162.57 427.033H1150.59ZM1148.68 450.097V420.404H1164.93V450.097H1148.68ZM1192.46 450.097V398.758H1206.89V450.097H1192.46ZM1204.15 450.097V438.127H1231.69V450.097H1204.15ZM1204.15 429.763V418.082H1229.02V429.763H1204.15ZM1204.15 410.728V398.758H1231.26V410.728H1204.15ZM1253.04 450.097V398.758H1267.46V450.097H1253.04ZM1237.68 411.016V398.758H1282.89V411.016H1237.68ZM1305.18 450.097L1330.15 385.718H1345.86L1370.56 450.097H1353.58L1334.97 395.979H1340.87L1321.8 450.097H1305.18ZM1320.35 438.837V425.943H1355.85V438.837H1320.35ZM1375.82 450.097V398.915H1385.88L1390.19 409.697V450.097H1375.82ZM1411.04 450.097L1381.35 412.788L1385.88 398.915L1415.57 436.223L1411.04 450.097ZM1411.04 450.097L1407.45 438.739V398.915H1421.82V450.097H1411.04ZM1455.6 451.103C1451.57 451.103 1447.86 450.432 1444.45 449.09C1441.1 447.748 1438.15 445.879 1435.61 443.483C1433.12 441.087 1431.18 438.26 1429.79 435.001C1428.4 431.742 1427.7 428.22 1427.7 424.434C1427.7 420.6 1428.38 417.078 1429.72 413.867C1431.11 410.656 1433.05 407.852 1435.54 405.456C1438.03 403.06 1440.96 401.215 1444.31 399.921C1447.71 398.579 1451.43 397.908 1455.45 397.908C1459.48 397.908 1463.17 398.579 1466.52 399.921C1469.93 401.215 1472.87 403.06 1475.36 405.456C1477.86 407.852 1479.77 410.68 1481.12 413.939C1482.5 417.149 1483.2 420.672 1483.2 424.506C1483.2 428.292 1482.5 431.814 1481.12 435.073C1479.77 438.284 1477.86 441.111 1475.36 443.555C1472.87 445.951 1469.95 447.82 1466.59 449.162C1463.24 450.456 1459.57 451.103 1455.6 451.103ZM1455.45 438.451C1458.14 438.451 1460.46 437.876 1462.43 436.726C1464.39 435.576 1465.9 433.947 1466.95 431.838C1468.01 429.729 1468.54 427.261 1468.54 424.434C1468.54 422.325 1468.22 420.432 1467.6 418.755C1467.03 417.03 1466.16 415.568 1465.01 414.37C1463.86 413.124 1462.47 412.189 1460.84 411.566C1459.26 410.895 1457.47 410.56 1455.45 410.56C1452.77 410.56 1450.44 411.135 1448.48 412.285C1446.51 413.387 1445.01 414.993 1443.95 417.101C1442.9 419.162 1442.37 421.606 1442.37 424.434C1442.37 426.59 1442.66 428.531 1443.23 430.256C1443.85 431.982 1444.74 433.467 1445.89 434.713C1447.04 435.911 1448.41 436.846 1449.99 437.517C1451.62 438.14 1453.44 438.451 1455.45 438.451ZM1499.3 450.097V398.915H1513.68V450.097H1499.3ZM1483.99 411.135V398.915H1529.07V411.135H1483.99ZM1534.47 450.097V398.915H1548.85V450.097H1534.47ZM1565.38 450.097V398.915H1579.76V450.097H1565.38ZM1542.31 429.969V418.036H1570.99V429.969H1542.31ZM1588.24 450.097V398.915H1602.62V450.097H1588.24ZM1599.89 450.097V438.164H1627.35V450.097H1599.89ZM1599.89 429.825V418.18H1624.69V429.825H1599.89ZM1599.89 410.847V398.915H1626.92V410.847H1599.89ZM1645.8 429.681V419.761H1654.5C1656.46 419.761 1657.95 419.282 1658.95 418.324C1660.01 417.365 1660.54 416.095 1660.54 414.514C1660.54 412.932 1660.01 411.662 1658.95 410.704C1657.95 409.745 1656.46 409.266 1654.5 409.266H1645.8V398.915H1656.8C1660.34 398.915 1663.46 399.562 1666.14 400.855C1668.83 402.149 1670.93 403.947 1672.47 406.247C1674 408.547 1674.77 411.231 1674.77 414.298C1674.77 417.365 1673.98 420.049 1672.4 422.349C1670.86 424.649 1668.71 426.447 1665.93 427.74C1663.15 429.034 1659.86 429.681 1656.08 429.681H1645.8ZM1634.15 450.097V398.915H1648.53V450.097H1634.15ZM1661.76 450.097L1647.81 428.244L1660.75 425.44L1678.08 450.097H1661.76ZM1727.86 451.26C1722.96 451.26 1718.46 450.425 1714.34 448.754C1710.22 447.083 1706.61 444.756 1703.51 441.772C1700.47 438.789 1698.08 435.298 1696.35 431.3C1694.62 427.242 1693.75 422.886 1693.75 418.232C1693.75 413.577 1694.59 409.281 1696.26 405.343C1697.99 401.345 1700.38 397.854 1703.42 394.87C1706.46 391.887 1710.04 389.589 1714.16 387.978C1718.28 386.307 1722.78 385.472 1727.68 385.472C1732.57 385.472 1737.08 386.307 1741.19 387.978C1745.31 389.589 1748.89 391.887 1751.93 394.87C1754.98 397.854 1757.33 401.345 1759.01 405.343C1760.74 409.341 1761.6 413.667 1761.6 418.321C1761.6 422.976 1760.74 427.302 1759.01 431.3C1757.33 435.298 1754.98 438.819 1751.93 441.862C1748.89 444.846 1745.31 447.173 1741.19 448.844C1737.14 450.455 1732.69 451.26 1727.86 451.26ZM1727.68 436.939C1731.26 436.939 1734.36 436.163 1736.99 434.612C1739.61 433.06 1741.64 430.882 1743.07 428.078C1744.51 425.273 1745.22 421.991 1745.22 418.232C1745.22 415.487 1744.8 412.981 1743.97 410.713C1743.19 408.446 1742.03 406.506 1740.48 404.895C1738.93 403.224 1737.08 401.941 1734.93 401.046C1732.78 400.151 1730.36 399.704 1727.68 399.704C1724.1 399.704 1720.99 400.479 1718.37 402.031C1715.74 403.523 1713.71 405.671 1712.28 408.475C1710.85 411.28 1710.13 414.532 1710.13 418.232C1710.13 421.096 1710.52 423.692 1711.3 426.019C1712.13 428.287 1713.33 430.256 1714.88 431.927C1716.43 433.538 1718.28 434.791 1720.43 435.686C1722.58 436.521 1724.99 436.939 1727.68 436.939ZM1779.86 432.126V421.775H1789.13C1790.24 421.775 1791.24 421.559 1792.15 421.128C1793.11 420.648 1793.88 419.953 1794.45 419.043C1795.03 418.084 1795.32 416.91 1795.32 415.521C1795.32 414.131 1795.03 412.981 1794.45 412.07C1793.88 411.112 1793.11 410.417 1792.15 409.986C1791.24 409.506 1790.24 409.267 1789.13 409.267H1779.86V398.916H1791.94C1795.24 398.916 1798.22 399.586 1800.85 400.928C1803.54 402.222 1805.64 404.115 1807.18 406.607C1808.76 409.051 1809.55 412.022 1809.55 415.521C1809.55 418.971 1808.76 421.942 1807.18 424.434C1805.64 426.926 1803.54 428.843 1800.85 430.185C1798.22 431.479 1795.24 432.126 1791.94 432.126H1779.86ZM1768.22 450.097V398.916H1782.59V450.097H1768.22ZM1814.69 450.097V398.916H1829.07V450.097H1814.69ZM1826.33 450.097V438.164H1853.79V450.097H1826.33ZM1826.33 429.825V418.18H1851.13V429.825H1826.33ZM1826.33 410.848V398.916H1853.36V410.848H1826.33ZM1860.6 450.097V398.916H1870.66L1874.98 409.698V450.097H1860.6ZM1895.82 450.097L1866.13 412.789L1870.66 398.916L1900.35 436.223L1895.82 450.097ZM1895.82 450.097L1892.23 438.739V398.916H1906.6V450.097H1895.82ZM1952.86 451.081C1947.55 451.081 1942.93 450.276 1938.99 448.665C1935.11 447.053 1931.56 444.517 1928.34 441.056L1938.45 430.852C1940.66 433.18 1943.02 434.97 1945.52 436.223C1948.03 437.416 1950.86 438.013 1954.03 438.013C1956.71 438.013 1958.77 437.566 1960.2 436.67C1961.69 435.716 1962.44 434.433 1962.44 432.822C1962.44 431.33 1961.9 430.107 1960.83 429.152C1959.75 428.137 1958.32 427.272 1956.53 426.556C1954.8 425.78 1952.86 425.064 1950.71 424.408C1948.63 423.692 1946.51 422.856 1944.36 421.902C1942.27 420.887 1940.33 419.664 1938.54 418.232C1936.81 416.8 1935.41 415.01 1934.33 412.861C1933.26 410.713 1932.72 408.058 1932.72 404.895C1932.72 400.837 1933.68 397.377 1935.59 394.512C1937.56 391.648 1940.27 389.44 1943.73 387.889C1947.19 386.337 1951.22 385.561 1955.82 385.561C1960.41 385.561 1964.65 386.337 1968.53 387.889C1972.4 389.44 1975.6 391.588 1978.1 394.333L1967.9 404.448C1965.99 402.538 1964.05 401.106 1962.08 400.151C1960.11 399.196 1957.96 398.719 1955.64 398.719C1953.43 398.719 1951.7 399.107 1950.45 399.883C1949.19 400.658 1948.57 401.762 1948.57 403.195C1948.57 404.627 1949.1 405.79 1950.18 406.685C1951.25 407.58 1952.65 408.386 1954.38 409.102C1956.17 409.758 1958.11 410.445 1960.2 411.161C1962.35 411.877 1964.47 412.712 1966.56 413.667C1968.65 414.622 1970.55 415.845 1972.29 417.337C1974.08 418.829 1975.51 420.708 1976.58 422.976C1977.66 425.243 1978.19 427.988 1978.19 431.211C1978.19 437.536 1975.95 442.429 1971.48 445.89C1967.06 449.351 1960.86 451.081 1952.86 451.081ZM2010.22 451.103C2006.19 451.103 2002.48 450.432 1999.07 449.09C1995.72 447.748 1992.77 445.88 1990.23 443.483C1987.74 441.087 1985.8 438.26 1984.41 435.001C1983.02 431.742 1982.33 428.22 1982.33 424.434C1982.33 420.6 1983 417.078 1984.34 413.867C1985.73 410.657 1987.67 407.853 1990.16 405.457C1992.65 403.061 1995.58 401.216 1998.93 399.922C2002.33 398.58 2006.05 397.909 2010.07 397.909C2014.1 397.909 2017.79 398.58 2021.14 399.922C2024.55 401.216 2027.49 403.061 2029.98 405.457C2032.48 407.853 2034.39 410.68 2035.74 413.939C2037.12 417.15 2037.82 420.672 2037.82 424.506C2037.82 428.292 2037.12 431.814 2035.74 435.073C2034.39 438.284 2032.48 441.111 2029.98 443.555C2027.49 445.951 2024.57 447.82 2021.21 449.162C2017.86 450.456 2014.19 451.103 2010.22 451.103ZM2010.07 438.452C2012.76 438.452 2015.08 437.876 2017.05 436.726C2019.01 435.576 2020.52 433.947 2021.57 431.838C2022.63 429.73 2023.16 427.262 2023.16 424.434C2023.16 422.326 2022.84 420.433 2022.22 418.755C2021.65 417.03 2020.78 415.569 2019.63 414.371C2018.48 413.125 2017.09 412.19 2015.46 411.567C2013.88 410.896 2012.09 410.561 2010.07 410.561C2007.39 410.561 2005.06 411.136 2003.1 412.286C2001.14 413.388 1999.63 414.994 1998.57 417.102C1997.52 419.163 1996.99 421.607 1996.99 424.434C1996.99 426.591 1997.28 428.532 1997.85 430.257C1998.48 431.982 1999.36 433.468 2000.51 434.714C2001.66 435.912 2003.03 436.846 2004.61 437.517C2006.24 438.14 2008.06 438.452 2010.07 438.452ZM2065.23 450.959C2060.73 450.959 2056.8 450.049 2053.44 448.228C2050.09 446.359 2047.48 443.795 2045.61 440.536C2043.74 437.277 2042.81 433.539 2042.81 429.322V398.916H2057.18V430.616C2057.18 432.246 2057.54 433.635 2058.26 434.785C2058.98 435.936 2059.94 436.822 2061.14 437.445C2062.38 438.02 2063.75 438.308 2065.23 438.308C2066.77 438.308 2068.11 438.02 2069.26 437.445C2070.46 436.822 2071.39 435.96 2072.06 434.857C2072.73 433.707 2073.07 432.317 2073.07 430.688V398.916H2087.52V429.394C2087.52 433.611 2086.58 437.349 2084.71 440.608C2082.89 443.819 2080.3 446.359 2076.95 448.228C2073.64 450.049 2069.74 450.959 2065.23 450.959ZM2106.7 429.682V419.762H2115.4C2117.36 419.762 2118.85 419.283 2119.86 418.324C2120.91 417.366 2121.44 416.096 2121.44 414.514C2121.44 412.933 2120.91 411.663 2119.86 410.704C2118.85 409.746 2117.36 409.267 2115.4 409.267H2106.7V398.916H2117.7C2121.24 398.916 2124.36 399.562 2127.04 400.856C2129.73 402.15 2131.84 403.947 2133.37 406.248C2134.9 408.548 2135.67 411.232 2135.67 414.299C2135.67 417.366 2134.88 420.049 2133.3 422.35C2131.76 424.65 2129.61 426.447 2126.83 427.741C2124.05 429.035 2120.77 429.682 2116.98 429.682H2106.7ZM2095.06 450.097V398.916H2109.43V450.097H2095.06ZM2122.66 450.097L2108.71 428.244L2121.65 425.441L2138.98 450.097H2122.66ZM2167.95 450.959C2164.02 450.959 2160.36 450.312 2156.96 449.018C2153.6 447.677 2150.65 445.808 2148.11 443.412C2145.57 441.015 2143.58 438.212 2142.15 435.001C2140.76 431.742 2140.06 428.22 2140.06 424.434C2140.06 420.6 2140.76 417.078 2142.15 413.867C2143.58 410.657 2145.55 407.877 2148.04 405.529C2150.58 403.181 2153.53 401.36 2156.88 400.066C2160.24 398.724 2163.88 398.053 2167.81 398.053C2171.79 398.053 2175.43 398.676 2178.74 399.922C2182.04 401.168 2184.92 402.893 2187.36 405.098L2177.8 414.73C2176.65 413.484 2175.24 412.502 2173.56 411.783C2171.93 411.064 2170.01 410.704 2167.81 410.704C2165.89 410.704 2164.12 411.016 2162.49 411.639C2160.91 412.262 2159.54 413.172 2158.39 414.371C2157.24 415.569 2156.33 417.03 2155.66 418.755C2155.04 420.433 2154.73 422.326 2154.73 424.434C2154.73 426.591 2155.04 428.532 2155.66 430.257C2156.33 431.934 2157.24 433.372 2158.39 434.57C2159.54 435.768 2160.91 436.702 2162.49 437.373C2164.12 437.996 2165.89 438.308 2167.81 438.308C2169.97 438.308 2171.88 437.972 2173.56 437.301C2175.29 436.63 2176.77 435.648 2178.02 434.354L2187.65 443.987C2185.11 446.191 2182.26 447.916 2179.1 449.162C2175.93 450.36 2172.22 450.959 2167.95 450.959ZM2192.63 450.097V398.916H2207.01V450.097H2192.63ZM2204.28 450.097V438.164H2231.74V450.097H2204.28ZM2204.28 429.825V418.18H2229.08V429.825H2204.28ZM2204.28 410.848V398.916H2231.31V410.848H2204.28Z" fill="white"/>
<path d="M1137.1 629.737V495.442H1161.53L1213.05 573.292H1201.5L1252.83 495.442H1277.26V629.737H1243.74V551.509L1249.04 553.024L1218.17 599.431H1196.19L1165.51 553.024L1170.81 551.509V629.737H1137.1ZM1301.17 629.737V495.442H1335.07V629.737H1301.17ZM1328.07 629.737V601.136H1400.8V629.737H1328.07ZM1328.07 575.186V547.342H1393.98V575.186H1328.07ZM1328.07 524.044V495.442H1399.66V524.044H1328.07ZM1458.64 631.821C1447.41 631.821 1437.62 630.116 1429.28 626.707C1421.08 623.297 1413.56 617.93 1406.74 610.606L1428.15 589.013C1432.82 593.938 1437.81 597.726 1443.11 600.378C1448.42 602.904 1454.41 604.166 1461.11 604.166C1466.79 604.166 1471.15 603.219 1474.18 601.325C1477.33 599.305 1478.91 596.59 1478.91 593.18C1478.91 590.023 1477.77 587.435 1475.5 585.414C1473.23 583.268 1470.2 581.437 1466.41 579.921C1462.75 578.28 1458.64 576.764 1454.1 575.375C1449.68 573.86 1445.2 572.092 1440.65 570.072C1436.23 567.925 1432.13 565.336 1428.34 562.306C1424.68 559.275 1421.71 555.487 1419.43 550.941C1417.16 546.395 1416.03 540.776 1416.03 534.083C1416.03 525.496 1418.05 518.172 1422.09 512.111C1426.25 506.05 1432 501.377 1439.32 498.094C1446.65 494.811 1455.17 493.169 1464.89 493.169C1474.62 493.169 1483.58 494.811 1491.79 498.094C1500 501.377 1506.76 505.923 1512.06 511.732L1490.47 533.136C1486.42 529.095 1482.32 526.064 1478.15 524.044C1473.99 522.023 1469.44 521.013 1464.52 521.013C1459.84 521.013 1456.18 521.834 1453.53 523.476C1450.88 525.117 1449.55 527.453 1449.55 530.484C1449.55 533.515 1450.69 535.977 1452.96 537.871C1455.23 539.765 1458.2 541.47 1461.86 542.985C1465.65 544.374 1469.76 545.827 1474.18 547.342C1478.72 548.857 1483.2 550.625 1487.62 552.646C1492.04 554.666 1496.08 557.255 1499.75 560.412C1503.53 563.568 1506.57 567.546 1508.84 572.345C1511.11 577.143 1512.25 582.952 1512.25 589.771C1512.25 603.156 1507.51 613.511 1498.04 620.835C1488.7 628.159 1475.56 631.821 1458.64 631.821ZM1529.43 629.737V495.442H1563.33V629.737H1529.43ZM1611.63 629.737V495.442H1645.54V629.737H1611.63ZM1548.75 575.186V546.774H1623.95V575.186H1548.75ZM1667.18 595.453V567.23H1735.56V595.453H1667.18ZM1796.04 631.821C1784.8 631.821 1775.01 630.116 1766.68 626.707C1758.47 623.297 1750.96 617.93 1744.14 610.606L1765.54 589.013C1770.22 593.938 1775.2 597.726 1780.51 600.378C1785.81 602.904 1791.81 604.166 1798.5 604.166C1804.18 604.166 1808.54 603.219 1811.57 601.325C1814.73 599.305 1816.31 596.59 1816.31 593.18C1816.31 590.023 1815.17 587.435 1812.9 585.414C1810.62 583.268 1807.59 581.437 1803.8 579.921C1800.14 578.28 1796.04 576.764 1791.49 575.375C1787.07 573.86 1782.59 572.092 1778.04 570.072C1773.62 567.925 1769.52 565.336 1765.73 562.306C1762.07 559.275 1759.1 555.487 1756.83 550.941C1754.56 546.395 1753.42 540.776 1753.42 534.083C1753.42 525.496 1755.44 518.172 1759.48 512.111C1763.65 506.05 1769.39 501.377 1776.72 498.094C1784.04 494.811 1792.57 493.169 1802.29 493.169C1812.01 493.169 1820.98 494.811 1829.19 498.094C1837.39 501.377 1844.15 505.923 1849.45 511.732L1827.86 533.136C1823.82 529.095 1819.72 526.064 1815.55 524.044C1811.38 522.023 1806.84 521.013 1801.91 521.013C1797.24 521.013 1793.58 521.834 1790.92 523.476C1788.27 525.117 1786.95 527.453 1786.95 530.484C1786.95 533.515 1788.08 535.977 1790.36 537.871C1792.63 539.765 1795.6 541.47 1799.26 542.985C1803.05 544.374 1807.15 545.827 1811.57 547.342C1816.12 548.857 1820.6 550.625 1825.02 552.646C1829.44 554.666 1833.48 557.255 1837.14 560.412C1840.93 563.568 1843.96 567.546 1846.23 572.345C1848.51 577.143 1849.64 582.952 1849.64 589.771C1849.64 603.156 1844.91 613.511 1835.44 620.835C1826.09 628.159 1812.96 631.821 1796.04 631.821ZM1901.64 581.626L1850.31 495.442H1889.14L1928.34 565.336H1901.07L1940.28 495.442H1978.35L1926.64 581.626H1901.64ZM1897.66 629.737V567.799H1931.56V629.737H1897.66ZM1987.43 629.737V495.442H2011.1L2021.33 522.907V629.737H1987.43ZM2080.05 629.737L2001.63 530.105L2011.1 495.442L2089.71 595.074L2080.05 629.737ZM2080.05 629.737L2071.34 601.515V495.442H2105.24V629.737H2080.05ZM2194.28 631.821C2184.05 631.821 2174.58 630.116 2165.86 626.707C2157.15 623.171 2149.51 618.309 2142.95 612.122C2136.51 605.808 2131.45 598.421 2127.79 589.96C2124.26 581.5 2122.49 572.345 2122.49 562.495C2122.49 552.519 2124.26 543.364 2127.79 535.03C2131.45 526.569 2136.51 519.245 2142.95 513.058C2149.51 506.87 2157.09 502.009 2165.68 498.473C2174.39 494.937 2183.8 493.169 2193.9 493.169C2204.51 493.169 2214.04 494.874 2222.5 498.284C2230.96 501.567 2238.41 506.176 2244.85 512.111L2222.12 534.841C2218.96 531.305 2215.05 528.527 2210.38 526.506C2205.71 524.486 2200.21 523.476 2193.9 523.476C2188.47 523.476 2183.48 524.36 2178.93 526.127C2174.51 527.895 2170.66 530.547 2167.38 534.083C2164.1 537.492 2161.51 541.596 2159.61 546.395C2157.85 551.193 2156.96 556.56 2156.96 562.495C2156.96 568.43 2157.85 573.797 2159.61 578.595C2161.51 583.394 2164.1 587.561 2167.38 591.097C2170.66 594.506 2174.51 597.158 2178.93 599.052C2183.48 600.82 2188.47 601.704 2193.9 601.704C2200.21 601.704 2205.77 600.757 2210.57 598.863C2215.37 596.842 2219.47 594.001 2222.88 590.339L2245.61 613.069C2239.04 619.004 2231.59 623.613 2223.26 626.896C2215.05 630.179 2205.39 631.821 2194.28 631.821Z" fill="#AE0017"/>
<path d="M1813.63 800.396L2210.76 801.767" stroke="white" stroke-width="24" stroke-linecap="round" stroke-linejoin="round" stroke-dasharray="32 64"/>
<path d="M1722.67 800.396C1722.67 784.165 1716.22 768.6 1704.75 757.123C1693.27 745.646 1677.7 739.199 1661.47 739.199C1644.37 739.263 1627.94 745.939 1615.64 757.83L1600.28 773.197M1600.28 773.197V739.199M1600.28 773.197H1634.28M1600.28 800.396C1600.28 816.627 1606.72 832.192 1618.2 843.669C1629.68 855.146 1645.24 861.593 1661.47 861.593C1678.58 861.529 1695 854.853 1707.3 842.962L1722.67 827.595M1722.67 827.595H1688.67M1722.67 827.595V861.593M1668.27 800.396C1668.27 804.151 1665.23 807.196 1661.47 807.196C1657.72 807.196 1654.67 804.151 1654.67 800.396C1654.67 796.641 1657.72 793.596 1661.47 793.596C1665.23 793.596 1668.27 796.641 1668.27 800.396Z" stroke="#AE0017" stroke-width="13.5994" stroke-linecap="round" stroke-linejoin="round"/>
</svg>
