<svg width="2816" height="1152" viewBox="0 0 2816 1152" fill="none" xmlns="http://www.w3.org/2000/svg">
<rect width="2816" height="1152" fill="#212830"/>
<path d="M1509.31 800.396H1125.78L1055.94 870.23H770.383" stroke="white" stroke-width="24" stroke-linecap="round" stroke-linejoin="round" stroke-dasharray="32 64"/>
<path d="M512 496C512 375.32 512 314.981 549.49 277.49C586.981 240 647.32 240 768 240V240C888.68 240 949.019 240 986.51 277.49C1024 314.981 1024 375.32 1024 496V496C1024 616.68 1024 677.019 986.51 714.51C949.019 752 888.68 752 768 752V752C647.32 752 586.981 752 549.49 714.51C512 677.019 512 616.68 512 496V496Z" fill="white"/>
<path d="M704 856.061C704 825.891 704 810.806 713.373 801.433C722.745 792.061 737.83 792.061 768 792.061V792.061C798.17 792.061 813.255 792.061 822.627 801.433C832 810.806 832 825.891 832 856.061V856.061C832 886.23 832 901.315 822.627 910.688C813.255 920.061 798.17 920.061 768 920.061V920.061C737.83 920.061 722.745 920.061 713.373 910.688C704 901.315 704 886.23 704 856.061V856.061Z" fill="white"/>
<path d="M752 976L752 176C752 167.163 759.163 160 768 160C776.837 160 784 167.163 784 176L784 976C784 984.837 776.837 992 768 992C759.163 992 752 984.837 752 976Z" fill="white"/>
<path d="M689.105 666.624C684.838 666.624 682.705 664.491 682.705 660.224V560.384L614.097 492.032C612.902 490.667 612.134 489.472 611.793 488.448C611.622 487.253 611.537 485.888 611.537 484.352V331.776C611.537 327.509 613.67 325.376 617.937 325.376H690.385C694.651 325.376 696.785 327.509 696.785 331.776V482.656C696.785 484.865 698.575 486.656 700.785 486.656H750.129C752.338 486.656 754.129 484.865 754.129 482.656V331.776C754.129 327.509 756.262 325.376 760.529 325.376H832.977C837.243 325.376 839.377 327.509 839.377 331.776V484.352C839.377 485.888 839.291 487.253 839.121 488.448C838.95 489.472 838.182 490.667 836.817 492.032L768.465 560.384V660.224C768.465 664.491 766.331 666.624 762.065 666.624H689.105Z" fill="#6E74ED"/>
<path d="M882.186 666.623C881.2 666.623 880.708 666.13 880.708 665.145V654.025C880.708 653.513 880.727 653.099 880.767 652.783C880.846 652.468 881.082 652.212 881.476 652.015L896.972 644.917V634.389L881.713 624.926C881.043 624.532 880.708 623.94 880.708 623.152V601.446C880.708 600.815 880.747 600.361 880.826 600.085C880.905 599.77 881.2 599.435 881.713 599.08L897.268 588.552C897.662 588.316 898.017 588.138 898.333 588.02C898.688 587.862 899.121 587.783 899.634 587.783H915.603C916.589 587.783 917.082 588.276 917.082 589.262V599.316C917.082 600.184 916.786 600.775 916.194 601.091L900.698 607.478V618.42L916.194 627.292C916.786 627.568 917.082 628.199 917.082 629.185V654.913C917.082 655.228 917.022 655.563 916.904 655.918C916.825 656.273 916.628 656.529 916.313 656.687L897.741 665.914C897.505 666.032 897.209 666.19 896.854 666.387C896.539 666.544 896.223 666.623 895.908 666.623H882.186Z" fill="#19191D"/>
<path d="M829.874 666.623C828.967 666.623 828.178 666.288 827.508 665.618L815.679 653.789C815.009 653.158 814.673 652.369 814.673 651.423V602.924C814.673 602.017 815.009 601.229 815.679 600.558L827.508 588.73C828.178 588.099 828.967 587.783 829.874 587.783H853.118C854.064 587.783 854.852 588.099 855.483 588.73L867.312 600.558C867.983 601.229 868.318 602.017 868.318 602.924V651.423C868.318 652.369 867.983 653.158 867.312 653.789L855.483 665.618C854.852 666.288 854.064 666.623 853.118 666.623H829.874ZM836.853 650.832H846.138C847.794 650.832 848.623 649.728 848.623 647.52V606.887C848.623 604.639 847.794 603.516 846.138 603.516H836.853C835.236 603.516 834.428 604.639 834.428 606.887V647.52C834.428 649.728 835.236 650.832 836.853 650.832Z" fill="#19191D"/>
<path d="M749.662 666.623C748.676 666.623 748.183 666.13 748.183 665.145V610.317C748.183 609.805 748.38 609.213 748.775 608.543L762.792 588.67C763.226 588.079 763.857 587.783 764.685 587.783H784.262C785.129 587.783 785.76 588.079 786.154 588.67L800.231 608.543C800.625 609.095 800.822 609.687 800.822 610.317V665.145C800.822 666.13 800.329 666.623 799.344 666.623H782.606C781.62 666.623 781.127 666.13 781.127 665.145V640.008H767.938V665.145C767.938 666.13 767.445 666.623 766.459 666.623H749.662ZM774.503 627.292C778.13 627.292 780.575 626.503 781.837 624.926C783.138 623.31 783.789 620.254 783.789 615.759C783.789 611.264 783.138 608.228 781.837 606.65C780.575 605.034 778.13 604.225 774.503 604.225C770.915 604.225 768.47 605.034 767.169 606.65C765.907 608.228 765.276 611.264 765.276 615.759C765.276 620.254 765.907 623.31 767.169 624.926C768.47 626.503 770.915 627.292 774.503 627.292Z" fill="#19191D"/>
<path d="M717.214 849.535C719.347 827.009 720.414 815.745 728.074 809.41C735.735 803.074 746.999 804.141 769.525 806.274V806.274C792.052 808.408 803.315 809.474 809.651 817.135C815.986 824.796 814.919 836.059 812.786 858.586V858.586C810.653 881.112 809.586 892.376 801.925 898.711C794.265 905.047 783.001 903.98 760.475 901.847V901.847C737.948 899.713 726.685 898.647 720.349 890.986C714.014 883.325 715.08 872.062 717.214 849.535V849.535Z" fill="#6E74ED"/>
<path d="M1150.59 427.033L1125.98 385.718H1144.59L1163.39 419.224H1150.32L1169.11 385.718H1187.36L1162.57 427.033H1150.59ZM1148.68 450.097V420.404H1164.93V450.097H1148.68ZM1192.46 450.097V398.758H1206.89V450.097H1192.46ZM1204.15 450.097V438.127H1231.69V450.097H1204.15ZM1204.15 429.763V418.082H1229.02V429.763H1204.15ZM1204.15 410.728V398.758H1231.26V410.728H1204.15ZM1253.04 450.097V398.758H1267.46V450.097H1253.04ZM1237.68 411.016V398.758H1282.89V411.016H1237.68ZM1305.18 450.097L1330.15 385.718H1345.86L1370.56 450.097H1353.58L1334.97 395.979H1340.87L1321.8 450.097H1305.18ZM1320.35 438.837V425.943H1355.85V438.837H1320.35ZM1375.82 450.097V398.915H1385.88L1390.19 409.697V450.097H1375.82ZM1411.04 450.097L1381.35 412.788L1385.88 398.915L1415.57 436.223L1411.04 450.097ZM1411.04 450.097L1407.45 438.739V398.915H1421.82V450.097H1411.04ZM1455.6 451.103C1451.57 451.103 1447.86 450.432 1444.45 449.09C1441.1 447.748 1438.15 445.879 1435.61 443.483C1433.12 441.087 1431.18 438.26 1429.79 435.001C1428.4 431.742 1427.7 428.22 1427.7 424.434C1427.7 420.6 1428.38 417.078 1429.72 413.867C1431.11 410.656 1433.05 407.852 1435.54 405.456C1438.03 403.06 1440.96 401.215 1444.31 399.921C1447.71 398.579 1451.43 397.908 1455.45 397.908C1459.48 397.908 1463.17 398.579 1466.52 399.921C1469.93 401.215 1472.87 403.06 1475.36 405.456C1477.86 407.852 1479.77 410.68 1481.12 413.939C1482.5 417.149 1483.2 420.672 1483.2 424.506C1483.2 428.292 1482.5 431.814 1481.12 435.073C1479.77 438.284 1477.86 441.111 1475.36 443.555C1472.87 445.951 1469.95 447.82 1466.59 449.162C1463.24 450.456 1459.57 451.103 1455.6 451.103ZM1455.45 438.451C1458.14 438.451 1460.46 437.876 1462.43 436.726C1464.39 435.576 1465.9 433.947 1466.95 431.838C1468.01 429.729 1468.54 427.261 1468.54 424.434C1468.54 422.325 1468.22 420.432 1467.6 418.755C1467.03 417.03 1466.16 415.568 1465.01 414.37C1463.86 413.124 1462.47 412.189 1460.84 411.566C1459.26 410.895 1457.47 410.56 1455.45 410.56C1452.77 410.56 1450.44 411.135 1448.48 412.285C1446.51 413.387 1445.01 414.993 1443.95 417.101C1442.9 419.162 1442.37 421.606 1442.37 424.434C1442.37 426.59 1442.66 428.531 1443.23 430.256C1443.85 431.982 1444.74 433.467 1445.89 434.713C1447.04 435.911 1448.41 436.846 1449.99 437.517C1451.62 438.14 1453.44 438.451 1455.45 438.451ZM1499.3 450.097V398.915H1513.68V450.097H1499.3ZM1483.99 411.135V398.915H1529.07V411.135H1483.99ZM1534.47 450.097V398.915H1548.85V450.097H1534.47ZM1565.38 450.097V398.915H1579.76V450.097H1565.38ZM1542.31 429.969V418.036H1570.99V429.969H1542.31ZM1588.24 450.097V398.915H1602.62V450.097H1588.24ZM1599.89 450.097V438.164H1627.35V450.097H1599.89ZM1599.89 429.825V418.18H1624.69V429.825H1599.89ZM1599.89 410.847V398.915H1626.92V410.847H1599.89ZM1645.8 429.681V419.761H1654.5C1656.46 419.761 1657.95 419.282 1658.95 418.324C1660.01 417.365 1660.54 416.095 1660.54 414.514C1660.54 412.932 1660.01 411.662 1658.95 410.704C1657.95 409.745 1656.46 409.266 1654.5 409.266H1645.8V398.915H1656.8C1660.34 398.915 1663.46 399.562 1666.14 400.855C1668.83 402.149 1670.93 403.947 1672.47 406.247C1674 408.547 1674.77 411.231 1674.77 414.298C1674.77 417.365 1673.98 420.049 1672.4 422.349C1670.86 424.649 1668.71 426.447 1665.93 427.74C1663.15 429.034 1659.86 429.681 1656.08 429.681H1645.8ZM1634.15 450.097V398.915H1648.53V450.097H1634.15ZM1661.76 450.097L1647.81 428.244L1660.75 425.44L1678.08 450.097H1661.76ZM1727.86 451.26C1722.96 451.26 1718.46 450.425 1714.34 448.754C1710.22 447.083 1706.61 444.756 1703.51 441.772C1700.47 438.789 1698.08 435.298 1696.35 431.3C1694.62 427.242 1693.75 422.886 1693.75 418.232C1693.75 413.577 1694.59 409.281 1696.26 405.343C1697.99 401.345 1700.38 397.854 1703.42 394.87C1706.46 391.887 1710.04 389.589 1714.16 387.978C1718.28 386.307 1722.78 385.472 1727.68 385.472C1732.57 385.472 1737.08 386.307 1741.19 387.978C1745.31 389.589 1748.89 391.887 1751.93 394.87C1754.98 397.854 1757.33 401.345 1759.01 405.343C1760.74 409.341 1761.6 413.667 1761.6 418.321C1761.6 422.976 1760.74 427.302 1759.01 431.3C1757.33 435.298 1754.98 438.819 1751.93 441.862C1748.89 444.846 1745.31 447.173 1741.19 448.844C1737.14 450.455 1732.69 451.26 1727.86 451.26ZM1727.68 436.939C1731.26 436.939 1734.36 436.163 1736.99 434.612C1739.61 433.06 1741.64 430.882 1743.07 428.078C1744.51 425.273 1745.22 421.991 1745.22 418.232C1745.22 415.487 1744.8 412.981 1743.97 410.713C1743.19 408.446 1742.03 406.506 1740.48 404.895C1738.93 403.224 1737.08 401.941 1734.93 401.046C1732.78 400.151 1730.36 399.704 1727.68 399.704C1724.1 399.704 1720.99 400.479 1718.37 402.031C1715.74 403.523 1713.71 405.671 1712.28 408.475C1710.85 411.28 1710.13 414.532 1710.13 418.232C1710.13 421.096 1710.52 423.692 1711.3 426.019C1712.13 428.287 1713.33 430.256 1714.88 431.927C1716.43 433.538 1718.28 434.791 1720.43 435.686C1722.58 436.521 1724.99 436.939 1727.68 436.939ZM1779.86 432.126V421.775H1789.13C1790.24 421.775 1791.24 421.559 1792.15 421.128C1793.11 420.648 1793.88 419.953 1794.45 419.043C1795.03 418.084 1795.32 416.91 1795.32 415.521C1795.32 414.131 1795.03 412.981 1794.45 412.07C1793.88 411.112 1793.11 410.417 1792.15 409.986C1791.24 409.506 1790.24 409.267 1789.13 409.267H1779.86V398.916H1791.94C1795.24 398.916 1798.22 399.586 1800.85 400.928C1803.54 402.222 1805.64 404.115 1807.18 406.607C1808.76 409.051 1809.55 412.022 1809.55 415.521C1809.55 418.971 1808.76 421.942 1807.18 424.434C1805.64 426.926 1803.54 428.843 1800.85 430.185C1798.22 431.479 1795.24 432.126 1791.94 432.126H1779.86ZM1768.22 450.097V398.916H1782.59V450.097H1768.22ZM1814.69 450.097V398.916H1829.07V450.097H1814.69ZM1826.33 450.097V438.164H1853.79V450.097H1826.33ZM1826.33 429.825V418.18H1851.13V429.825H1826.33ZM1826.33 410.848V398.916H1853.36V410.848H1826.33ZM1860.6 450.097V398.916H1870.66L1874.98 409.698V450.097H1860.6ZM1895.82 450.097L1866.13 412.789L1870.66 398.916L1900.35 436.223L1895.82 450.097ZM1895.82 450.097L1892.23 438.739V398.916H1906.6V450.097H1895.82ZM1952.86 451.081C1947.55 451.081 1942.93 450.276 1938.99 448.665C1935.11 447.053 1931.56 444.517 1928.34 441.056L1938.45 430.852C1940.66 433.18 1943.02 434.97 1945.52 436.223C1948.03 437.416 1950.86 438.013 1954.03 438.013C1956.71 438.013 1958.77 437.566 1960.2 436.67C1961.69 435.716 1962.44 434.433 1962.44 432.822C1962.44 431.33 1961.9 430.107 1960.83 429.152C1959.75 428.137 1958.32 427.272 1956.53 426.556C1954.8 425.78 1952.86 425.064 1950.71 424.408C1948.63 423.692 1946.51 422.856 1944.36 421.902C1942.27 420.887 1940.33 419.664 1938.54 418.232C1936.81 416.8 1935.41 415.01 1934.33 412.861C1933.26 410.713 1932.72 408.058 1932.72 404.895C1932.72 400.837 1933.68 397.377 1935.59 394.512C1937.56 391.648 1940.27 389.44 1943.73 387.889C1947.19 386.337 1951.22 385.561 1955.82 385.561C1960.41 385.561 1964.65 386.337 1968.53 387.889C1972.4 389.44 1975.6 391.588 1978.1 394.333L1967.9 404.448C1965.99 402.538 1964.05 401.106 1962.08 400.151C1960.11 399.196 1957.96 398.719 1955.64 398.719C1953.43 398.719 1951.7 399.107 1950.45 399.883C1949.19 400.658 1948.57 401.762 1948.57 403.195C1948.57 404.627 1949.1 405.79 1950.18 406.685C1951.25 407.58 1952.65 408.386 1954.38 409.102C1956.17 409.758 1958.11 410.445 1960.2 411.161C1962.35 411.877 1964.47 412.712 1966.56 413.667C1968.65 414.622 1970.55 415.845 1972.29 417.337C1974.08 418.829 1975.51 420.708 1976.58 422.976C1977.66 425.243 1978.19 427.988 1978.19 431.211C1978.19 437.536 1975.95 442.429 1971.48 445.89C1967.06 449.351 1960.86 451.081 1952.86 451.081ZM2010.22 451.103C2006.19 451.103 2002.48 450.432 1999.07 449.09C1995.72 447.748 1992.77 445.88 1990.23 443.483C1987.74 441.087 1985.8 438.26 1984.41 435.001C1983.02 431.742 1982.33 428.22 1982.33 424.434C1982.33 420.6 1983 417.078 1984.34 413.867C1985.73 410.657 1987.67 407.853 1990.16 405.457C1992.65 403.061 1995.58 401.216 1998.93 399.922C2002.33 398.58 2006.05 397.909 2010.07 397.909C2014.1 397.909 2017.79 398.58 2021.14 399.922C2024.55 401.216 2027.49 403.061 2029.98 405.457C2032.48 407.853 2034.39 410.68 2035.74 413.939C2037.12 417.15 2037.82 420.672 2037.82 424.506C2037.82 428.292 2037.12 431.814 2035.74 435.073C2034.39 438.284 2032.48 441.111 2029.98 443.555C2027.49 445.951 2024.57 447.82 2021.21 449.162C2017.86 450.456 2014.19 451.103 2010.22 451.103ZM2010.07 438.452C2012.76 438.452 2015.08 437.876 2017.05 436.726C2019.01 435.576 2020.52 433.947 2021.57 431.838C2022.63 429.73 2023.16 427.262 2023.16 424.434C2023.16 422.326 2022.84 420.433 2022.22 418.755C2021.65 417.03 2020.78 415.569 2019.63 414.371C2018.48 413.125 2017.09 412.19 2015.46 411.567C2013.88 410.896 2012.09 410.561 2010.07 410.561C2007.39 410.561 2005.06 411.136 2003.1 412.286C2001.14 413.388 1999.63 414.994 1998.57 417.102C1997.52 419.163 1996.99 421.607 1996.99 424.434C1996.99 426.591 1997.28 428.532 1997.85 430.257C1998.48 431.982 1999.36 433.468 2000.51 434.714C2001.66 435.912 2003.03 436.846 2004.61 437.517C2006.24 438.14 2008.06 438.452 2010.07 438.452ZM2065.23 450.959C2060.73 450.959 2056.8 450.049 2053.44 448.228C2050.09 446.359 2047.48 443.795 2045.61 440.536C2043.74 437.277 2042.81 433.539 2042.81 429.322V398.916H2057.18V430.616C2057.18 432.246 2057.54 433.635 2058.26 434.785C2058.98 435.936 2059.94 436.822 2061.14 437.445C2062.38 438.02 2063.75 438.308 2065.23 438.308C2066.77 438.308 2068.11 438.02 2069.26 437.445C2070.46 436.822 2071.39 435.96 2072.06 434.857C2072.73 433.707 2073.07 432.317 2073.07 430.688V398.916H2087.52V429.394C2087.52 433.611 2086.58 437.349 2084.71 440.608C2082.89 443.819 2080.3 446.359 2076.95 448.228C2073.64 450.049 2069.74 450.959 2065.23 450.959ZM2106.7 429.682V419.762H2115.4C2117.36 419.762 2118.85 419.283 2119.86 418.324C2120.91 417.366 2121.44 416.096 2121.44 414.514C2121.44 412.933 2120.91 411.663 2119.86 410.704C2118.85 409.746 2117.36 409.267 2115.4 409.267H2106.7V398.916H2117.7C2121.24 398.916 2124.36 399.562 2127.04 400.856C2129.73 402.15 2131.84 403.947 2133.37 406.248C2134.9 408.548 2135.67 411.232 2135.67 414.299C2135.67 417.366 2134.88 420.049 2133.3 422.35C2131.76 424.65 2129.61 426.447 2126.83 427.741C2124.05 429.035 2120.77 429.682 2116.98 429.682H2106.7ZM2095.06 450.097V398.916H2109.43V450.097H2095.06ZM2122.66 450.097L2108.71 428.244L2121.65 425.441L2138.98 450.097H2122.66ZM2167.95 450.959C2164.02 450.959 2160.36 450.312 2156.96 449.018C2153.6 447.677 2150.65 445.808 2148.11 443.412C2145.57 441.015 2143.58 438.212 2142.15 435.001C2140.76 431.742 2140.06 428.22 2140.06 424.434C2140.06 420.6 2140.76 417.078 2142.15 413.867C2143.58 410.657 2145.55 407.877 2148.04 405.529C2150.58 403.181 2153.53 401.36 2156.88 400.066C2160.24 398.724 2163.88 398.053 2167.81 398.053C2171.79 398.053 2175.43 398.676 2178.74 399.922C2182.04 401.168 2184.92 402.893 2187.36 405.098L2177.8 414.73C2176.65 413.484 2175.24 412.502 2173.56 411.783C2171.93 411.064 2170.01 410.704 2167.81 410.704C2165.89 410.704 2164.12 411.016 2162.49 411.639C2160.91 412.262 2159.54 413.172 2158.39 414.371C2157.24 415.569 2156.33 417.03 2155.66 418.755C2155.04 420.433 2154.73 422.326 2154.73 424.434C2154.73 426.591 2155.04 428.532 2155.66 430.257C2156.33 431.934 2157.24 433.372 2158.39 434.57C2159.54 435.768 2160.91 436.702 2162.49 437.373C2164.12 437.996 2165.89 438.308 2167.81 438.308C2169.97 438.308 2171.88 437.972 2173.56 437.301C2175.29 436.63 2176.77 435.648 2178.02 434.354L2187.65 443.987C2185.11 446.191 2182.26 447.916 2179.1 449.162C2175.93 450.36 2172.22 450.959 2167.95 450.959ZM2192.63 450.097V398.916H2207.01V450.097H2192.63ZM2204.28 450.097V438.164H2231.74V450.097H2204.28ZM2204.28 429.825V418.18H2229.08V429.825H2204.28ZM2204.28 410.848V398.916H2231.31V410.848H2204.28Z" fill="white"/>
<path d="M1194.11 670.272C1179.76 670.272 1167.26 668.095 1156.61 663.741C1146.13 659.386 1136.53 652.532 1127.82 643.177L1155.16 615.598C1161.13 621.888 1167.5 626.727 1174.27 630.114C1181.05 633.339 1188.71 634.952 1197.26 634.952C1204.51 634.952 1210.08 633.742 1213.95 631.323C1217.98 628.743 1220 625.275 1220 620.921C1220 616.889 1218.54 613.582 1215.64 611.002C1212.74 608.26 1208.87 605.921 1204.03 603.986C1199.35 601.889 1194.11 599.954 1188.3 598.18C1182.66 596.245 1176.93 593.987 1171.13 591.406C1165.48 588.664 1160.24 585.358 1155.4 581.487C1150.73 577.617 1146.94 572.778 1144.03 566.972C1141.13 561.166 1139.68 553.989 1139.68 545.441C1139.68 534.474 1142.26 525.12 1147.42 517.378C1152.74 509.637 1160.08 503.67 1169.43 499.476C1178.79 495.283 1189.68 493.186 1202.09 493.186C1214.51 493.186 1225.96 495.283 1236.45 499.476C1246.93 503.67 1255.56 509.476 1262.33 516.895L1234.75 544.232C1229.59 539.071 1224.35 535.2 1219.03 532.619C1213.71 530.039 1207.9 528.749 1201.61 528.749C1195.64 528.749 1190.97 529.797 1187.58 531.894C1184.19 533.99 1182.5 536.974 1182.5 540.845C1182.5 544.716 1183.95 547.86 1186.85 550.28C1189.76 552.699 1193.55 554.876 1198.22 556.812C1203.06 558.586 1208.3 560.44 1213.95 562.376C1219.75 564.311 1225.48 566.569 1231.12 569.15C1236.77 571.73 1241.93 575.036 1246.61 579.068C1251.45 583.1 1255.32 588.181 1258.22 594.309C1261.12 600.438 1262.57 607.857 1262.57 616.566C1262.57 633.662 1256.53 646.887 1244.43 656.241C1232.5 665.595 1215.72 670.272 1194.11 670.272ZM1318.87 606.163V573.988H1352.74C1356.93 573.988 1360.72 573.182 1364.11 571.569C1367.66 569.795 1370.48 567.214 1372.58 563.827C1374.67 560.44 1375.72 556.247 1375.72 551.247C1375.72 546.248 1374.67 542.054 1372.58 538.667C1370.48 535.119 1367.66 532.539 1364.11 530.926C1360.72 529.152 1356.93 528.265 1352.74 528.265H1318.87V496.089H1360.24C1371.21 496.089 1381.12 498.347 1389.99 502.863C1398.87 507.218 1405.88 513.508 1411.04 521.733C1416.2 529.797 1418.78 539.635 1418.78 551.247C1418.78 562.537 1416.2 572.375 1411.04 580.762C1405.88 588.987 1398.87 595.277 1389.99 599.632C1381.12 603.986 1371.21 606.163 1360.24 606.163H1318.87ZM1284.52 667.611V496.089H1327.82V667.611H1284.52ZM1437.84 667.611V496.089H1481.15V667.611H1437.84ZM1472.2 667.611V631.081H1565.09V667.611H1472.2ZM1472.2 597.938V562.376H1556.39V597.938H1472.2ZM1472.2 532.619V496.089H1563.64V532.619H1472.2ZM1669.9 670.272C1656.84 670.272 1644.74 668.095 1633.61 663.741C1622.49 659.225 1612.73 653.015 1604.34 645.113C1596.12 637.049 1589.67 627.614 1584.99 616.808C1580.47 606.002 1578.21 594.309 1578.21 581.729C1578.21 568.988 1580.47 557.295 1584.99 546.651C1589.67 535.845 1596.12 526.491 1604.34 518.588C1612.73 510.685 1622.41 504.476 1633.37 499.96C1644.5 495.444 1656.52 493.186 1669.42 493.186C1682.97 493.186 1695.14 495.364 1705.95 499.718C1716.75 503.912 1726.27 509.798 1734.5 517.378L1705.47 546.409C1701.43 541.893 1696.43 538.345 1690.47 535.764C1684.5 533.184 1677.48 531.894 1669.42 531.894C1662.48 531.894 1656.11 533.023 1650.31 535.281C1644.66 537.539 1639.74 540.925 1635.55 545.441C1631.36 549.796 1628.05 555.037 1625.63 561.166C1623.37 567.295 1622.24 574.149 1622.24 581.729C1622.24 589.31 1623.37 596.164 1625.63 602.293C1628.05 608.421 1631.36 613.744 1635.55 618.259C1639.74 622.614 1644.66 626.001 1650.31 628.42C1656.11 630.678 1662.48 631.807 1669.42 631.807C1677.48 631.807 1684.58 630.597 1690.71 628.178C1696.84 625.598 1702.08 621.969 1706.43 617.292L1735.46 646.322C1727.08 653.902 1717.56 659.789 1706.92 663.983C1696.43 668.176 1684.1 670.272 1669.9 670.272ZM1748.21 623.824V587.777H1835.54V623.824H1748.21ZM1890.29 667.611V497.299H1933.6V667.611H1890.29ZM1837.8 533.345V496.089H1986.1V533.345H1837.8ZM2075.96 670.272C2061.44 670.272 2048.62 667.289 2037.49 661.321C2026.53 655.193 2017.98 646.725 2011.85 635.92C2005.72 625.114 2002.66 612.857 2002.66 599.148V496.089H2045.72V602.293C2045.72 608.421 2047.01 613.744 2049.59 618.259C2052.33 622.614 2055.96 626.001 2060.48 628.42C2065.15 630.678 2070.31 631.807 2075.96 631.807C2081.77 631.807 2086.85 630.678 2091.2 628.42C2095.56 626.001 2099.02 622.614 2101.6 618.259C2104.18 613.905 2105.47 608.663 2105.47 602.535V496.089H2149.02V599.39C2149.02 613.098 2145.96 625.356 2139.83 636.162C2133.7 646.806 2125.15 655.193 2114.18 661.321C2103.38 667.289 2090.64 670.272 2075.96 670.272ZM2176.6 667.611V496.089H2219.9V667.611H2176.6Z" fill="#6E74ED"/>
<path d="M1813.63 800.396L2210.76 801.767" stroke="white" stroke-width="24" stroke-linecap="round" stroke-linejoin="round" stroke-dasharray="32 64"/>
<path d="M1700.73 837.608H1661.54C1654.34 837.608 1648.78 843.759 1645.31 850.041C1642.57 855.192 1638.18 859.277 1632.85 861.648C1627.51 864.019 1621.54 864.539 1615.88 863.125C1610.21 861.711 1605.18 858.444 1601.59 853.845C1598 849.245 1596.04 843.576 1596.04 837.739C1596.11 833.159 1597.35 828.579 1599.77 824.653M1622.22 837.739L1642.7 799.919C1646.16 793.572 1643.35 785.655 1639.42 779.635C1637.57 776.672 1636.33 773.367 1635.78 769.916C1635.22 766.466 1635.36 762.939 1636.19 759.544C1637.02 756.149 1638.52 752.954 1640.61 750.149C1642.69 747.343 1645.32 744.984 1648.33 743.21C1651.34 741.435 1654.68 740.282 1658.14 739.818C1661.6 739.354 1665.13 739.588 1668.5 740.507C1671.87 741.426 1675.02 743.011 1677.77 745.169C1680.52 747.326 1682.81 750.013 1684.51 753.069M1661.47 765.763L1681.96 803.256C1685.42 809.603 1693.54 811.566 1700.73 811.566C1707.68 811.566 1714.33 814.324 1719.24 819.232C1724.15 824.14 1726.91 830.798 1726.91 837.739C1726.91 844.681 1724.15 851.338 1719.24 856.246C1714.33 861.155 1707.68 863.912 1700.73 863.912" stroke="#6E74ED" stroke-width="13.0865" stroke-linecap="round" stroke-linejoin="round"/>
</svg>
