<svg width="1024" height="488" viewBox="0 0 1024 488" fill="none" xmlns="http://www.w3.org/2000/svg">
<path d="M105.724 117.701C106.229 111.748 110.95 107.026 116.903 106.522L182.967 100.923C212.356 98.4327 241.903 98.4327 271.293 100.923L337.357 106.522C343.309 107.026 348.031 111.748 348.536 117.701L354.134 183.765C356.625 213.154 356.625 242.701 354.134 272.09L348.536 338.155C348.031 344.107 343.309 348.829 337.357 349.334L271.293 354.932C241.903 357.423 212.356 357.423 182.967 354.932L116.903 349.334C110.95 348.829 106.229 344.107 105.724 338.155L100.125 272.09C97.6348 242.701 97.6348 213.154 100.125 183.765L105.724 117.701Z" fill="white"/>
<path d="M183.852 247.151C184.084 246.919 184.084 246.542 183.852 246.309L165.049 227.506C164.816 227.273 164.816 226.896 165.049 226.663L175.241 216.471C175.474 216.238 175.851 216.238 176.083 216.471L205.921 246.309C206.154 246.542 206.154 246.919 205.921 247.151L176.083 276.989C175.851 277.222 175.474 277.222 175.241 276.989L165.049 266.797C164.816 266.565 164.816 266.187 165.049 265.955L183.852 247.151Z" fill="#FF9900"/>
<path d="M194.986 358.675C194.986 340.923 209.377 326.532 227.13 326.532C244.882 326.532 259.273 340.923 259.273 358.675C259.273 376.428 244.882 390.819 227.13 390.819C209.377 390.819 194.986 376.428 194.986 358.675Z" fill="#FF9900"/>
<path d="M241.908 358.675C241.908 347.693 238.112 343.897 227.129 343.897C216.147 343.897 212.351 347.693 212.351 358.675C212.351 369.658 216.147 373.454 227.129 373.454V390.819L226.714 390.816C209.153 390.593 194.986 376.289 194.986 358.675C194.986 340.923 209.377 326.532 227.129 326.532C244.882 326.532 259.273 340.923 259.273 358.675L259.27 359.091C259.048 376.652 244.743 390.819 227.129 390.819V373.454C238.112 373.454 241.908 369.658 241.908 358.675Z" fill="white"/>
<path d="M414.087 273.411L434.994 215.427H453.206L474.113 273.411H457.779L454.513 263.856H433.606L430.339 273.411H414.087ZM437.852 251.442H450.348L444.141 233.067L437.852 251.442ZM502.834 274.717C497.444 274.717 492.625 273.52 488.379 271.124C484.186 268.728 480.865 265.298 478.415 260.834C476.02 256.315 474.822 250.87 474.822 244.5C474.822 238.402 475.965 233.094 478.252 228.575C480.538 224.002 483.805 220.463 488.052 217.958C492.299 215.399 497.335 214.12 503.16 214.12C511.109 214.12 517.289 216.053 521.699 219.918C526.163 223.784 529.022 229.419 530.274 236.824L513.695 237.395C513.151 234.074 511.953 231.515 510.102 229.718C508.251 227.867 505.937 226.942 503.16 226.942C500.493 226.942 498.26 227.704 496.464 229.228C494.721 230.699 493.415 232.767 492.544 235.435C491.672 238.049 491.237 241.07 491.237 244.5C491.237 248.039 491.7 251.115 492.625 253.729C493.551 256.342 494.885 258.357 496.627 259.772C498.424 261.188 500.547 261.896 502.997 261.896C506.155 261.896 508.605 260.943 510.347 259.037C512.089 257.077 513.205 254.328 513.695 250.789L530.356 251.36C529.539 256.424 527.96 260.698 525.619 264.182C523.278 267.612 520.202 270.226 516.391 272.022C512.634 273.819 508.115 274.717 502.834 274.717ZM564.483 274.717C559.093 274.717 554.275 273.52 550.028 271.124C545.836 268.728 542.515 265.298 540.065 260.834C537.669 256.315 536.471 250.87 536.471 244.5C536.471 238.402 537.615 233.094 539.901 228.575C542.188 224.002 545.455 220.463 549.701 217.958C553.948 215.399 558.984 214.12 564.81 214.12C572.759 214.12 578.938 216.053 583.348 219.918C587.813 223.784 590.671 229.419 591.923 236.824L575.345 237.395C574.8 234.074 573.603 231.515 571.752 229.718C569.9 227.867 567.586 226.942 564.81 226.942C562.142 226.942 559.91 227.704 558.113 229.228C556.371 230.699 555.064 232.767 554.193 235.435C553.322 238.049 552.886 241.07 552.886 244.5C552.886 248.039 553.349 251.115 554.275 253.729C555.2 256.342 556.534 258.357 558.276 259.772C560.073 261.188 562.196 261.896 564.646 261.896C567.804 261.896 570.254 260.943 571.997 259.037C573.739 257.077 574.855 254.328 575.345 250.789L592.005 251.36C591.188 256.424 589.61 260.698 587.268 264.182C584.927 267.612 581.851 270.226 578.04 272.022C574.283 273.819 569.764 274.717 564.483 274.717ZM598.242 273.411V215.427H641.2V228.248H614.249V237.967H640.22V250.707H614.249V260.589H641.853V273.411H598.242ZM674.911 274.717C669.575 274.717 665.029 273.873 661.273 272.186C657.516 270.498 654.603 268.102 652.534 264.999C650.465 261.896 649.295 258.22 649.022 253.974L664.948 253.239C665.22 255.144 665.764 256.778 666.581 258.139C667.398 259.445 668.487 260.453 669.848 261.161C671.263 261.814 673.006 262.141 675.074 262.141C676.708 262.141 678.096 261.977 679.239 261.651C680.383 261.269 681.254 260.698 681.853 259.935C682.452 259.173 682.751 258.22 682.751 257.077C682.751 256.043 682.479 255.144 681.934 254.382C681.444 253.565 680.437 252.858 678.913 252.259C677.443 251.605 675.238 250.979 672.298 250.38C667.017 249.291 662.743 248.039 659.476 246.624C656.209 245.154 653.814 243.275 652.289 240.989C650.819 238.702 650.084 235.789 650.084 232.25C650.084 228.657 651.01 225.499 652.861 222.777C654.712 220.055 657.38 217.931 660.864 216.407C664.349 214.882 668.541 214.12 673.441 214.12C678.613 214.12 682.942 214.991 686.426 216.733C689.911 218.476 692.606 220.871 694.511 223.92C696.471 226.969 697.642 230.508 698.023 234.537L682.261 235.19C682.152 233.394 681.717 231.869 680.954 230.617C680.192 229.365 679.158 228.412 677.851 227.758C676.599 227.051 675.074 226.697 673.278 226.697C670.991 226.697 669.222 227.16 667.969 228.085C666.717 229.011 666.091 230.236 666.091 231.76C666.091 232.958 666.39 233.965 666.989 234.782C667.643 235.599 668.677 236.279 670.093 236.824C671.563 237.368 673.55 237.858 676.054 238.294C681.771 239.274 686.29 240.608 689.611 242.295C692.932 243.983 695.274 245.998 696.635 248.339C698.05 250.68 698.758 253.375 698.758 256.424C698.758 260.18 697.805 263.447 695.9 266.224C694.049 268.946 691.326 271.042 687.733 272.512C684.194 273.982 679.92 274.717 674.911 274.717ZM732.812 274.717C727.477 274.717 722.93 273.873 719.174 272.186C715.417 270.498 712.504 268.102 710.435 264.999C708.366 261.896 707.196 258.22 706.923 253.974L722.849 253.239C723.121 255.144 723.665 256.778 724.482 258.139C725.299 259.445 726.388 260.453 727.749 261.161C729.164 261.814 730.907 262.141 732.975 262.141C734.609 262.141 735.997 261.977 737.14 261.651C738.284 261.269 739.155 260.698 739.754 259.935C740.353 259.173 740.652 258.22 740.652 257.077C740.652 256.043 740.38 255.144 739.836 254.382C739.346 253.565 738.338 252.858 736.814 252.259C735.344 251.605 733.139 250.979 730.199 250.38C724.918 249.291 720.644 248.039 717.377 246.624C714.11 245.154 711.715 243.275 710.19 240.989C708.72 238.702 707.985 235.789 707.985 232.25C707.985 228.657 708.911 225.499 710.762 222.777C712.613 220.055 715.281 217.931 718.765 216.407C722.25 214.882 726.442 214.12 731.342 214.12C736.514 214.12 740.843 214.991 744.327 216.733C747.812 218.476 750.507 220.871 752.412 223.92C754.372 226.969 755.543 230.508 755.924 234.537L740.162 235.19C740.053 233.394 739.618 231.869 738.856 230.617C738.093 229.365 737.059 228.412 735.752 227.758C734.5 227.051 732.975 226.697 731.179 226.697C728.892 226.697 727.123 227.16 725.87 228.085C724.618 229.011 723.992 230.236 723.992 231.76C723.992 232.958 724.291 233.965 724.89 234.782C725.544 235.599 726.578 236.279 727.994 236.824C729.464 237.368 731.451 237.858 733.955 238.294C739.672 239.274 744.191 240.608 747.512 242.295C750.833 243.983 753.175 245.998 754.536 248.339C755.951 250.68 756.659 253.375 756.659 256.424C756.659 260.18 755.706 263.447 753.801 266.224C751.95 268.946 749.227 271.042 745.634 272.512C742.095 273.982 737.821 274.717 732.812 274.717ZM763.355 255.77V243.357H792.101V255.77H763.355ZM799.78 273.411V215.427H815.786V270.062L806.64 260.589H841.022V273.411H799.78ZM846.754 273.411V215.427H862.761V273.411H846.754ZM872.116 273.411V215.427H896.453C903.857 215.427 909.574 216.706 913.603 219.265C917.686 221.77 919.728 225.771 919.728 231.27C919.728 233.611 919.265 235.626 918.34 237.314C917.469 239.001 916.135 240.363 914.338 241.397C912.541 242.377 910.336 243.03 907.723 243.357V243.52C912.569 244.01 916.189 245.453 918.585 247.849C920.98 250.19 922.178 253.375 922.178 257.404C922.178 262.848 920.164 266.877 916.135 269.491C912.106 272.104 906.362 273.411 898.903 273.411H872.116ZM888.123 261.161H897.841C900.182 261.161 902.142 260.698 903.721 259.772C905.355 258.792 906.171 257.268 906.171 255.199C906.171 253.13 905.382 251.605 903.803 250.625C902.224 249.645 900.237 249.155 897.841 249.155H888.123V261.161ZM888.123 238.702H895.8C898.086 238.702 899.965 238.266 901.435 237.395C902.959 236.47 903.721 235.081 903.721 233.23C903.721 231.27 902.986 229.855 901.516 228.983C900.046 228.112 898.141 227.677 895.8 227.677H888.123V238.702Z" fill="#FF9900"/>
<path d="M434.032 190.706C432.902 191.18 431.716 191.53 430.474 191.756C429.232 192.005 427.91 192.129 426.51 192.129C423.912 192.129 421.687 191.643 419.834 190.672C418.005 189.723 416.593 188.334 415.599 186.504C414.628 184.675 414.142 182.483 414.142 179.931C414.142 177.627 414.503 175.526 415.226 173.628C415.949 171.731 416.977 170.093 418.31 168.715C419.665 167.315 421.258 166.242 423.087 165.496C424.917 164.728 426.939 164.344 429.153 164.344C431.705 164.344 433.93 164.841 435.828 165.835C437.725 166.829 439.194 168.23 440.233 170.037C441.272 171.844 441.791 173.979 441.791 176.441C441.791 178.248 441.52 179.84 440.978 181.218C440.436 182.596 439.691 183.681 438.742 184.471C437.793 185.239 436.697 185.623 435.455 185.623C434.416 185.623 433.557 185.318 432.88 184.708C432.225 184.099 431.863 183.274 431.796 182.235L432.304 182.099C432.033 182.755 431.604 183.364 431.016 183.929C430.429 184.494 429.762 184.946 429.017 185.285C428.272 185.601 427.504 185.759 426.713 185.759C425.38 185.759 424.251 185.499 423.325 184.98C422.421 184.46 421.732 183.737 421.258 182.811C420.783 181.885 420.546 180.812 420.546 179.592C420.546 178.079 420.84 176.701 421.427 175.458C422.037 174.216 422.873 173.233 423.934 172.51C425.019 171.765 426.284 171.392 427.729 171.392C428.927 171.392 429.943 171.663 430.779 172.205C431.637 172.725 432.18 173.414 432.405 174.272L432.067 174.611L432.304 171.46H434.777L434.235 178.575C434.213 179.072 434.167 179.637 434.1 180.27C434.054 180.902 434.032 181.422 434.032 181.828C434.032 182.325 434.167 182.709 434.438 182.98C434.71 183.251 435.116 183.387 435.658 183.387C436.81 183.387 437.714 182.777 438.369 181.557C439.024 180.337 439.352 178.666 439.352 176.542C439.352 174.442 438.956 172.657 438.166 171.189C437.375 169.72 436.212 168.614 434.676 167.868C433.162 167.1 431.299 166.716 429.085 166.716C427.232 166.716 425.538 167.032 424.002 167.665C422.466 168.297 421.145 169.201 420.038 170.376C418.931 171.528 418.073 172.906 417.463 174.509C416.875 176.113 416.582 177.898 416.582 179.863C416.582 181.964 416.966 183.76 417.734 185.251C418.524 186.719 419.665 187.837 421.156 188.605C422.647 189.373 424.454 189.757 426.577 189.757C427.797 189.757 428.994 189.633 430.169 189.384C431.366 189.159 432.462 188.831 433.456 188.402L434.032 190.706ZM427.052 183.523C428.181 183.523 429.096 183.251 429.796 182.709C430.519 182.145 431.05 181.433 431.389 180.575C431.75 179.694 431.931 178.79 431.931 177.864C431.931 177.073 431.796 176.362 431.524 175.729C431.276 175.074 430.858 174.566 430.271 174.204C429.706 173.82 428.949 173.628 428.001 173.628C426.984 173.628 426.126 173.9 425.425 174.442C424.748 174.961 424.228 175.661 423.867 176.542C423.505 177.401 423.325 178.35 423.325 179.389C423.325 180.563 423.596 181.546 424.138 182.337C424.702 183.127 425.674 183.523 427.052 183.523ZM446.815 193.484V190.977H448.882C449.514 190.977 449.977 190.875 450.271 190.672C450.587 190.491 450.824 190.186 450.982 189.757L451.626 188.063H450.644L444.07 170.443H447.187L452.541 185.42L457.657 170.443H460.775L453.49 190.672C453.151 191.643 452.643 192.355 451.965 192.807C451.287 193.259 450.35 193.484 449.153 193.484H446.815ZM468.319 188.808C466.467 188.808 464.987 188.379 463.88 187.521C462.796 186.662 462.254 185.465 462.254 183.929C462.254 182.393 462.706 181.185 463.609 180.304C464.513 179.423 465.947 178.801 467.912 178.44L474.283 177.254C474.283 175.741 473.921 174.611 473.198 173.866C472.498 173.12 471.436 172.747 470.013 172.747C468.771 172.747 467.788 173.03 467.065 173.595C466.342 174.137 465.846 174.927 465.574 175.966L462.559 175.729C462.898 174.035 463.711 172.668 464.998 171.629C466.309 170.568 467.98 170.037 470.013 170.037C472.317 170.037 474.079 170.692 475.299 172.002C476.519 173.29 477.129 175.074 477.129 177.356V184.776C477.129 185.183 477.197 185.477 477.332 185.657C477.49 185.815 477.739 185.894 478.078 185.894H478.789V188.402C478.699 188.424 478.552 188.436 478.349 188.436C478.145 188.458 477.931 188.47 477.705 188.47C476.892 188.47 476.225 188.345 475.706 188.097C475.209 187.826 474.847 187.419 474.621 186.877C474.396 186.312 474.283 185.578 474.283 184.675L474.621 184.742C474.463 185.51 474.079 186.211 473.469 186.843C472.859 187.453 472.103 187.939 471.199 188.3C470.296 188.639 469.336 188.808 468.319 188.808ZM468.59 186.301C469.787 186.301 470.804 186.075 471.64 185.623C472.498 185.149 473.153 184.516 473.605 183.726C474.057 182.913 474.283 182.009 474.283 181.015V179.728L468.455 180.812C467.235 181.038 466.388 181.388 465.913 181.862C465.461 182.314 465.236 182.913 465.236 183.658C465.236 184.494 465.529 185.149 466.117 185.623C466.726 186.075 467.551 186.301 468.59 186.301ZM488.952 188.808C487.303 188.808 485.857 188.424 484.615 187.656C483.372 186.888 482.412 185.804 481.734 184.404C481.057 182.98 480.718 181.32 480.718 179.423C480.718 177.503 481.057 175.842 481.734 174.442C482.412 173.041 483.372 171.957 484.615 171.189C485.857 170.421 487.303 170.037 488.952 170.037C490.601 170.037 492.035 170.421 493.255 171.189C494.497 171.957 495.457 173.041 496.135 174.442C496.813 175.842 497.152 177.503 497.152 179.423C497.152 181.32 496.813 182.98 496.135 184.404C495.457 185.804 494.497 186.888 493.255 187.656C492.035 188.424 490.601 188.808 488.952 188.808ZM488.952 186.098C490.601 186.098 491.877 185.51 492.781 184.336C493.707 183.139 494.17 181.501 494.17 179.423C494.17 177.344 493.707 175.718 492.781 174.543C491.877 173.346 490.601 172.747 488.952 172.747C487.303 172.747 486.015 173.346 485.089 174.543C484.163 175.718 483.7 177.344 483.7 179.423C483.7 181.501 484.163 183.139 485.089 184.336C486.015 185.51 487.303 186.098 488.952 186.098ZM507.57 188.808C505.966 188.808 504.6 188.549 503.47 188.029C502.363 187.51 501.494 186.798 500.861 185.894C500.251 184.968 499.901 183.918 499.811 182.743L502.793 182.54C502.973 183.624 503.436 184.494 504.182 185.149C504.927 185.781 506.057 186.098 507.57 186.098C508.79 186.098 509.761 185.906 510.484 185.522C511.23 185.115 511.602 184.471 511.602 183.59C511.602 183.116 511.489 182.721 511.264 182.404C511.038 182.088 510.597 181.817 509.942 181.591C509.287 181.343 508.316 181.106 507.028 180.88C505.311 180.563 503.956 180.179 502.962 179.728C501.991 179.253 501.29 178.677 500.861 177.999C500.455 177.299 500.251 176.475 500.251 175.526C500.251 173.922 500.839 172.612 502.013 171.595C503.188 170.556 504.859 170.037 507.028 170.037C508.496 170.037 509.727 170.308 510.721 170.85C511.738 171.369 512.529 172.07 513.093 172.951C513.681 173.809 514.065 174.758 514.245 175.797L511.264 176C511.128 175.368 510.88 174.814 510.518 174.34C510.157 173.843 509.682 173.459 509.095 173.188C508.508 172.894 507.807 172.747 506.994 172.747C505.707 172.747 504.758 172.996 504.148 173.493C503.538 173.99 503.233 174.622 503.233 175.39C503.233 175.978 503.369 176.463 503.64 176.847C503.933 177.209 504.396 177.514 505.029 177.762C505.661 177.988 506.509 178.191 507.57 178.372C509.4 178.688 510.823 179.072 511.84 179.524C512.856 179.976 513.568 180.529 513.974 181.185C514.381 181.84 514.584 182.642 514.584 183.59C514.584 184.697 514.268 185.646 513.635 186.437C513.026 187.205 512.19 187.792 511.128 188.199C510.089 188.605 508.903 188.808 507.57 188.808ZM517.58 179.863V177.186H528.796V179.863H517.58ZM539.806 193.891C538.518 193.891 537.355 193.676 536.316 193.247C535.277 192.818 534.407 192.208 533.707 191.418C533.007 190.627 532.532 189.712 532.284 188.673L535.266 188.47C535.537 189.305 536.011 189.961 536.689 190.435C537.389 190.932 538.428 191.18 539.806 191.18C541.432 191.18 542.675 190.853 543.533 190.198C544.414 189.543 544.855 188.56 544.855 187.25V184.336C544.426 185.285 543.737 186.041 542.788 186.606C541.839 187.171 540.777 187.453 539.603 187.453C538.089 187.453 536.734 187.08 535.537 186.335C534.362 185.589 533.436 184.562 532.758 183.251C532.103 181.941 531.776 180.439 531.776 178.745C531.776 177.028 532.103 175.526 532.758 174.238C533.413 172.928 534.317 171.9 535.469 171.155C536.644 170.409 537.976 170.037 539.467 170.037C540.732 170.037 541.862 170.33 542.856 170.918C543.872 171.505 544.584 172.296 544.99 173.29V170.443H547.701V187.182C547.701 188.583 547.385 189.78 546.752 190.774C546.12 191.79 545.216 192.558 544.042 193.078C542.867 193.62 541.455 193.891 539.806 193.891ZM539.738 184.742C541.274 184.742 542.505 184.212 543.432 183.15C544.358 182.066 544.832 180.597 544.855 178.745C544.877 177.503 544.674 176.441 544.245 175.56C543.838 174.656 543.24 173.967 542.449 173.493C541.681 172.996 540.777 172.747 539.738 172.747C538.157 172.747 536.926 173.29 536.045 174.374C535.187 175.436 534.757 176.893 534.757 178.745C534.757 180.597 535.198 182.066 536.079 183.15C536.982 184.212 538.202 184.742 539.738 184.742ZM552.618 188.402V170.443H555.464V188.402H552.618ZM552.55 167.631V164.31H555.532V167.631H552.55ZM566.107 188.402C564.48 188.402 563.272 188.029 562.481 187.284C561.713 186.538 561.329 185.375 561.329 183.794V166.242H564.176V183.726C564.176 184.539 564.356 185.104 564.718 185.42C565.079 185.736 565.633 185.894 566.378 185.894H568.953V188.402H566.107ZM558.686 172.951V170.443H568.953V172.951H558.686ZM571.778 192.129L581.774 162.989H584.484L574.489 192.129H571.778Z" fill="#666F76"/>
<rect x="225.945" y="137.021" width="74.3394" height="74.3394" transform="rotate(45 225.945 137.021)" fill="#FF9900"/>
<path d="M184.585 297.956C182.803 297.956 181.911 295.802 183.171 294.542L224.531 253.182C225.312 252.401 226.578 252.401 227.359 253.182L268.719 294.542C269.979 295.802 269.087 297.956 267.305 297.956H184.585Z" fill="#FF9900"/>
</svg>
