<svg width="1024" height="488" viewBox="0 0 1024 488" fill="none" xmlns="http://www.w3.org/2000/svg">
<path d="M105.724 117.701C106.229 111.748 110.95 107.026 116.903 106.522L182.967 100.923C212.356 98.4327 241.903 98.4327 271.293 100.923L337.357 106.522C343.309 107.026 348.031 111.748 348.536 117.701L354.134 183.765C356.625 213.154 356.625 242.701 354.134 272.09L348.536 338.155C348.031 344.107 343.309 348.829 337.357 349.334L271.293 354.932C241.903 357.423 212.356 357.423 182.967 354.932L116.903 349.334C110.95 348.829 106.229 344.107 105.724 338.155L100.125 272.09C97.6348 242.701 97.6348 213.154 100.125 183.765L105.724 117.701Z" fill="#19191D"/>
<path d="M243.682 160.093C243.083 159.495 242.06 159.919 242.06 160.765L242.06 206.873C242.06 207.398 242.485 207.824 243.01 207.824L289.118 207.824C289.964 207.824 290.388 206.8 289.79 206.201L243.682 160.093Z" fill="#00D5CB"/>
<path d="M243.682 221.828C243.083 221.229 242.06 221.653 242.06 222.5L242.06 268.608C242.06 269.133 242.485 269.558 243.01 269.558L289.118 269.558C289.964 269.558 290.388 268.534 289.79 267.936L243.682 221.828Z" fill="#00D5CB"/>
<path d="M218.119 160.648C218.119 158.9 216.007 158.025 214.771 159.261L147.491 226.541C146.725 227.307 146.725 228.549 147.491 229.314L214.771 296.595C216.007 297.83 218.119 296.955 218.119 295.208V160.648Z" fill="#00D5CB"/>
<path d="M194.986 358.675C194.986 340.923 209.377 326.532 227.13 326.532C244.882 326.532 259.273 340.923 259.273 358.675C259.273 376.428 244.882 390.819 227.13 390.819C209.377 390.819 194.986 376.428 194.986 358.675Z" fill="#00D5CB"/>
<path d="M241.908 358.675C241.908 347.693 238.112 343.897 227.129 343.897C216.147 343.897 212.351 347.693 212.351 358.675C212.351 369.658 216.147 373.454 227.129 373.454V390.819L226.714 390.816C209.153 390.593 194.986 376.289 194.986 358.675C194.986 340.923 209.377 326.532 227.129 326.532C244.882 326.532 259.273 340.923 259.273 358.675L259.27 359.091C259.048 376.652 244.743 390.819 227.129 390.819V373.454C238.112 373.454 241.908 369.658 241.908 358.675Z" fill="#19191D"/>
<path d="M416.839 274.702V226.36H437.128C443.302 226.36 448.068 227.427 451.427 229.56C454.831 231.648 456.533 234.984 456.533 239.569C456.533 241.521 456.147 243.2 455.376 244.607C454.649 246.015 453.537 247.149 452.039 248.012C450.541 248.829 448.703 249.373 446.524 249.646V249.782C450.564 250.19 453.583 251.393 455.58 253.391C457.577 255.342 458.576 257.998 458.576 261.357C458.576 265.896 456.896 269.255 453.537 271.434C450.178 273.612 445.39 274.702 439.171 274.702H416.839ZM430.184 264.489H438.286C440.238 264.489 441.872 264.103 443.188 263.331C444.55 262.514 445.231 261.243 445.231 259.518C445.231 257.793 444.572 256.523 443.256 255.705C441.94 254.888 440.283 254.48 438.286 254.48H430.184V264.489ZM430.184 245.765H436.584C438.49 245.765 440.056 245.402 441.282 244.675C442.553 243.904 443.188 242.746 443.188 241.203C443.188 239.569 442.575 238.389 441.35 237.663C440.124 236.936 438.535 236.573 436.584 236.573H430.184V245.765ZM465.709 274.702V226.36H479.054V271.91L471.429 264.012H500.093V274.702H465.709ZM524.158 275.791C519.892 275.791 516.17 275.019 512.992 273.476C509.86 271.933 507.432 269.754 505.707 266.94C503.982 264.08 503.12 260.721 503.12 256.863V226.292H516.465V256.863C516.465 259.496 517.123 261.538 518.439 262.991C519.756 264.398 521.662 265.101 524.158 265.101C526.7 265.101 528.629 264.398 529.946 262.991C531.262 261.538 531.92 259.496 531.92 256.863V226.292H545.265V256.863C545.265 260.721 544.403 264.08 542.678 266.94C540.953 269.754 538.502 271.933 535.325 273.476C532.193 275.019 528.471 275.791 524.158 275.791ZM553.677 274.702V226.36H589.49V237.05H567.022V245.152H588.673V255.774H567.022V264.012H590.035V274.702H553.677ZM596.962 274.702V226.36H617.66C623.743 226.36 628.509 227.835 631.959 230.786C635.454 233.736 637.201 237.776 637.201 242.905C637.201 246.264 636.407 249.192 634.818 251.688C633.275 254.14 631.028 256.046 628.078 257.408C625.173 258.724 621.7 259.382 617.66 259.382H610.307V274.702H596.962ZM610.307 248.693H616.639C618.727 248.693 620.407 248.216 621.678 247.263C622.949 246.264 623.584 244.812 623.584 242.905C623.584 240.999 622.949 239.546 621.678 238.548C620.452 237.549 618.773 237.05 616.639 237.05H610.307V248.693ZM642.309 274.702V226.36H665.39C669.022 226.36 672.176 226.95 674.854 228.13C677.578 229.311 679.666 230.967 681.118 233.101C682.616 235.234 683.365 237.753 683.365 240.658C683.365 242.928 682.934 244.948 682.071 246.718C681.209 248.443 679.961 249.873 678.327 251.008C676.693 252.142 674.718 252.914 672.403 253.322L672.267 252.642C675.671 252.642 678.213 253.368 679.893 254.82C681.572 256.227 682.503 258.315 682.684 261.084L683.774 274.702H670.156L669.475 263.399C669.385 261.629 668.908 260.335 668.046 259.518C667.183 258.656 665.663 258.225 663.484 258.225H655.654V274.702H642.309ZM655.654 247.535H662.939C665.163 247.535 666.843 247.081 667.978 246.173C669.158 245.22 669.748 243.904 669.748 242.224C669.748 240.499 669.158 239.206 667.978 238.343C666.843 237.481 665.163 237.05 662.939 237.05H655.654V247.535ZM690.914 274.702V226.36H704.259V274.702H690.914ZM712.058 274.702V226.36H725.539L741.675 253.595V226.36H755.02V274.702H741.539L725.403 248.829V274.702H712.058ZM772.612 274.702V237.05H758.518V226.36H800.119V237.05H786.025V274.702H772.612ZM800.908 259.995V249.646H824.875V259.995H800.908ZM839.103 274.702V237.05H825.009V226.36H866.61V237.05H852.516V274.702H839.103ZM891.52 275.791C887.253 275.791 883.531 275.019 880.354 273.476C877.222 271.933 874.794 269.754 873.069 266.94C871.344 264.08 870.481 260.721 870.481 256.863V226.292H883.826V256.863C883.826 259.496 884.485 261.538 885.801 262.991C887.117 264.398 889.024 265.101 891.52 265.101C894.062 265.101 895.991 264.398 897.308 262.991C898.624 261.538 899.282 259.496 899.282 256.863V226.292H912.627V256.863C912.627 260.721 911.765 264.08 910.04 266.94C908.315 269.754 905.864 271.933 902.686 273.476C899.554 275.019 895.832 275.791 891.52 275.791ZM921.038 274.702V226.36H934.383V274.702H921.038Z" fill="#00D5CB"/>
<path d="M434.032 190.706C432.902 191.18 431.716 191.53 430.474 191.756C429.232 192.005 427.91 192.129 426.51 192.129C423.912 192.129 421.687 191.643 419.834 190.672C418.005 189.723 416.593 188.334 415.599 186.504C414.628 184.675 414.142 182.483 414.142 179.931C414.142 177.627 414.503 175.526 415.226 173.628C415.949 171.731 416.977 170.093 418.31 168.715C419.665 167.315 421.258 166.242 423.087 165.496C424.917 164.728 426.939 164.344 429.153 164.344C431.705 164.344 433.93 164.841 435.828 165.835C437.725 166.829 439.194 168.23 440.233 170.037C441.272 171.844 441.791 173.979 441.791 176.441C441.791 178.248 441.52 179.84 440.978 181.218C440.436 182.596 439.691 183.681 438.742 184.471C437.793 185.239 436.697 185.623 435.455 185.623C434.416 185.623 433.557 185.318 432.88 184.708C432.225 184.099 431.863 183.274 431.796 182.235L432.304 182.099C432.033 182.755 431.604 183.364 431.016 183.929C430.429 184.494 429.762 184.946 429.017 185.285C428.272 185.601 427.504 185.759 426.713 185.759C425.38 185.759 424.251 185.499 423.325 184.98C422.421 184.46 421.732 183.737 421.258 182.811C420.783 181.885 420.546 180.812 420.546 179.592C420.546 178.079 420.84 176.701 421.427 175.458C422.037 174.216 422.873 173.233 423.934 172.51C425.019 171.765 426.284 171.392 427.729 171.392C428.927 171.392 429.943 171.663 430.779 172.205C431.637 172.725 432.18 173.414 432.405 174.272L432.067 174.611L432.304 171.46H434.777L434.235 178.575C434.213 179.072 434.167 179.637 434.1 180.27C434.054 180.902 434.032 181.422 434.032 181.828C434.032 182.325 434.167 182.709 434.438 182.98C434.71 183.251 435.116 183.387 435.658 183.387C436.81 183.387 437.714 182.777 438.369 181.557C439.024 180.337 439.352 178.666 439.352 176.542C439.352 174.442 438.956 172.657 438.166 171.189C437.375 169.72 436.212 168.614 434.676 167.868C433.162 167.1 431.299 166.716 429.085 166.716C427.232 166.716 425.538 167.032 424.002 167.665C422.466 168.297 421.145 169.201 420.038 170.376C418.931 171.528 418.073 172.906 417.463 174.509C416.875 176.113 416.582 177.898 416.582 179.863C416.582 181.964 416.966 183.76 417.734 185.251C418.524 186.719 419.665 187.837 421.156 188.605C422.647 189.373 424.454 189.757 426.577 189.757C427.797 189.757 428.994 189.633 430.169 189.384C431.366 189.159 432.462 188.831 433.456 188.402L434.032 190.706ZM427.052 183.523C428.181 183.523 429.096 183.251 429.796 182.709C430.519 182.145 431.05 181.433 431.389 180.575C431.75 179.694 431.931 178.79 431.931 177.864C431.931 177.073 431.796 176.362 431.524 175.729C431.276 175.074 430.858 174.566 430.271 174.204C429.706 173.82 428.949 173.628 428.001 173.628C426.984 173.628 426.126 173.9 425.425 174.442C424.748 174.961 424.228 175.661 423.867 176.542C423.505 177.401 423.325 178.35 423.325 179.389C423.325 180.563 423.596 181.546 424.138 182.337C424.702 183.127 425.674 183.523 427.052 183.523ZM446.815 193.484V190.977H448.882C449.514 190.977 449.977 190.875 450.271 190.672C450.587 190.491 450.824 190.186 450.982 189.757L451.626 188.063H450.644L444.07 170.443H447.187L452.541 185.42L457.657 170.443H460.775L453.49 190.672C453.151 191.643 452.643 192.355 451.965 192.807C451.287 193.259 450.35 193.484 449.153 193.484H446.815ZM468.319 188.808C466.467 188.808 464.987 188.379 463.88 187.521C462.796 186.662 462.254 185.465 462.254 183.929C462.254 182.393 462.706 181.185 463.609 180.304C464.513 179.423 465.947 178.801 467.912 178.44L474.283 177.254C474.283 175.741 473.921 174.611 473.198 173.866C472.498 173.12 471.436 172.747 470.013 172.747C468.771 172.747 467.788 173.03 467.065 173.595C466.342 174.137 465.846 174.927 465.574 175.966L462.559 175.729C462.898 174.035 463.711 172.668 464.998 171.629C466.309 170.568 467.98 170.037 470.013 170.037C472.317 170.037 474.079 170.692 475.299 172.002C476.519 173.29 477.129 175.074 477.129 177.356V184.776C477.129 185.183 477.197 185.477 477.332 185.657C477.49 185.815 477.739 185.894 478.078 185.894H478.789V188.402C478.699 188.424 478.552 188.436 478.349 188.436C478.145 188.458 477.931 188.47 477.705 188.47C476.892 188.47 476.225 188.345 475.706 188.097C475.209 187.826 474.847 187.419 474.621 186.877C474.396 186.312 474.283 185.578 474.283 184.675L474.621 184.742C474.463 185.51 474.079 186.211 473.469 186.843C472.859 187.453 472.103 187.939 471.199 188.3C470.296 188.639 469.336 188.808 468.319 188.808ZM468.59 186.301C469.787 186.301 470.804 186.075 471.64 185.623C472.498 185.149 473.153 184.516 473.605 183.726C474.057 182.913 474.283 182.009 474.283 181.015V179.728L468.455 180.812C467.235 181.038 466.388 181.388 465.913 181.862C465.461 182.314 465.236 182.913 465.236 183.658C465.236 184.494 465.529 185.149 466.117 185.623C466.726 186.075 467.551 186.301 468.59 186.301ZM488.952 188.808C487.303 188.808 485.857 188.424 484.615 187.656C483.372 186.888 482.412 185.804 481.734 184.404C481.057 182.98 480.718 181.32 480.718 179.423C480.718 177.503 481.057 175.842 481.734 174.442C482.412 173.041 483.372 171.957 484.615 171.189C485.857 170.421 487.303 170.037 488.952 170.037C490.601 170.037 492.035 170.421 493.255 171.189C494.497 171.957 495.457 173.041 496.135 174.442C496.813 175.842 497.152 177.503 497.152 179.423C497.152 181.32 496.813 182.98 496.135 184.404C495.457 185.804 494.497 186.888 493.255 187.656C492.035 188.424 490.601 188.808 488.952 188.808ZM488.952 186.098C490.601 186.098 491.877 185.51 492.781 184.336C493.707 183.139 494.17 181.501 494.17 179.423C494.17 177.344 493.707 175.718 492.781 174.543C491.877 173.346 490.601 172.747 488.952 172.747C487.303 172.747 486.015 173.346 485.089 174.543C484.163 175.718 483.7 177.344 483.7 179.423C483.7 181.501 484.163 183.139 485.089 184.336C486.015 185.51 487.303 186.098 488.952 186.098ZM507.57 188.808C505.966 188.808 504.6 188.549 503.47 188.029C502.363 187.51 501.494 186.798 500.861 185.894C500.251 184.968 499.901 183.918 499.811 182.743L502.793 182.54C502.973 183.624 503.436 184.494 504.182 185.149C504.927 185.781 506.057 186.098 507.57 186.098C508.79 186.098 509.761 185.906 510.484 185.522C511.23 185.115 511.602 184.471 511.602 183.59C511.602 183.116 511.489 182.721 511.264 182.404C511.038 182.088 510.597 181.817 509.942 181.591C509.287 181.343 508.316 181.106 507.028 180.88C505.311 180.563 503.956 180.179 502.962 179.728C501.991 179.253 501.29 178.677 500.861 177.999C500.455 177.299 500.251 176.475 500.251 175.526C500.251 173.922 500.839 172.612 502.013 171.595C503.188 170.556 504.859 170.037 507.028 170.037C508.496 170.037 509.727 170.308 510.721 170.85C511.738 171.369 512.529 172.07 513.093 172.951C513.681 173.809 514.065 174.758 514.245 175.797L511.264 176C511.128 175.368 510.88 174.814 510.518 174.34C510.157 173.843 509.682 173.459 509.095 173.188C508.508 172.894 507.807 172.747 506.994 172.747C505.707 172.747 504.758 172.996 504.148 173.493C503.538 173.99 503.233 174.622 503.233 175.39C503.233 175.978 503.369 176.463 503.64 176.847C503.933 177.209 504.396 177.514 505.029 177.762C505.661 177.988 506.509 178.191 507.57 178.372C509.4 178.688 510.823 179.072 511.84 179.524C512.856 179.976 513.568 180.529 513.974 181.185C514.381 181.84 514.584 182.642 514.584 183.59C514.584 184.697 514.268 185.646 513.635 186.437C513.026 187.205 512.19 187.792 511.128 188.199C510.089 188.605 508.903 188.808 507.57 188.808ZM517.58 179.863V177.186H528.796V179.863H517.58ZM539.806 193.891C538.518 193.891 537.355 193.676 536.316 193.247C535.277 192.818 534.407 192.208 533.707 191.418C533.007 190.627 532.532 189.712 532.284 188.673L535.266 188.47C535.537 189.305 536.011 189.961 536.689 190.435C537.389 190.932 538.428 191.18 539.806 191.18C541.432 191.18 542.675 190.853 543.533 190.198C544.414 189.543 544.855 188.56 544.855 187.25V184.336C544.426 185.285 543.737 186.041 542.788 186.606C541.839 187.171 540.777 187.453 539.603 187.453C538.089 187.453 536.734 187.08 535.537 186.335C534.362 185.589 533.436 184.562 532.758 183.251C532.103 181.941 531.776 180.439 531.776 178.745C531.776 177.028 532.103 175.526 532.758 174.238C533.413 172.928 534.317 171.9 535.469 171.155C536.644 170.409 537.976 170.037 539.467 170.037C540.732 170.037 541.862 170.33 542.856 170.918C543.872 171.505 544.584 172.296 544.99 173.29V170.443H547.701V187.182C547.701 188.583 547.385 189.78 546.752 190.774C546.12 191.79 545.216 192.558 544.042 193.078C542.867 193.62 541.455 193.891 539.806 193.891ZM539.738 184.742C541.274 184.742 542.505 184.212 543.432 183.15C544.358 182.066 544.832 180.597 544.855 178.745C544.877 177.503 544.674 176.441 544.245 175.56C543.838 174.656 543.24 173.967 542.449 173.493C541.681 172.996 540.777 172.747 539.738 172.747C538.157 172.747 536.926 173.29 536.045 174.374C535.187 175.436 534.757 176.893 534.757 178.745C534.757 180.597 535.198 182.066 536.079 183.15C536.982 184.212 538.202 184.742 539.738 184.742ZM552.618 188.402V170.443H555.464V188.402H552.618ZM552.55 167.631V164.31H555.532V167.631H552.55ZM566.107 188.402C564.48 188.402 563.272 188.029 562.481 187.284C561.713 186.538 561.329 185.375 561.329 183.794V166.242H564.176V183.726C564.176 184.539 564.356 185.104 564.718 185.42C565.079 185.736 565.633 185.894 566.378 185.894H568.953V188.402H566.107ZM558.686 172.951V170.443H568.953V172.951H558.686ZM571.778 192.129L581.774 162.989H584.484L574.489 192.129H571.778Z" fill="#666F76"/>
</svg>
