<svg width="1024" height="488" viewBox="0 0 1024 488" fill="none" xmlns="http://www.w3.org/2000/svg">
<path d="M105.724 117.701C106.229 111.748 110.95 107.026 116.903 106.522L182.967 100.923C212.356 98.4327 241.903 98.4327 271.293 100.923L337.357 106.522C343.309 107.026 348.031 111.748 348.536 117.701L354.134 183.765C356.625 213.154 356.625 242.701 354.134 272.09L348.536 338.155C348.031 344.107 343.309 348.829 337.357 349.334L271.293 354.932C241.903 357.423 212.356 357.423 182.967 354.932L116.903 349.334C110.95 348.829 106.229 344.107 105.724 338.155L100.125 272.09C97.6348 242.701 97.6348 213.154 100.125 183.765L105.724 117.701Z" fill="#19191D"/>
<path d="M261.451 228.851C261.961 228.342 261.961 227.515 261.451 227.005L220.253 185.808C219.743 185.298 219.743 184.471 220.253 183.962L242.585 161.63C243.095 161.12 243.921 161.12 244.431 161.63L309.806 227.005C310.315 227.514 310.315 228.341 309.806 228.851L244.431 294.225C243.921 294.735 243.095 294.735 242.585 294.225L220.254 271.894C219.744 271.385 219.744 270.558 220.254 270.048L261.451 228.851Z" fill="#FF9900"/>
<path d="M185.868 257.782C185.868 258.558 184.931 258.946 184.383 258.398L154.528 228.543C154.188 228.203 154.188 227.652 154.528 227.312L184.383 197.457C184.931 196.909 185.868 197.298 185.868 198.073L185.868 257.782Z" fill="#FF9900"/>
<path d="M194.986 358.675C194.986 340.923 209.377 326.532 227.13 326.532C244.882 326.532 259.273 340.923 259.273 358.675C259.273 376.428 244.882 390.819 227.13 390.819C209.377 390.819 194.986 376.428 194.986 358.675Z" fill="#FF9900"/>
<path d="M241.908 358.675C241.908 347.693 238.112 343.897 227.129 343.897C216.147 343.897 212.351 347.693 212.351 358.675C212.351 369.658 216.147 373.454 227.129 373.454V390.819L226.714 390.816C209.153 390.593 194.986 376.289 194.986 358.675C194.986 340.923 209.377 326.532 227.129 326.532C244.882 326.532 259.273 340.923 259.273 358.675L259.27 359.091C259.048 376.652 244.743 390.819 227.129 390.819V373.454C238.112 373.454 241.908 369.658 241.908 358.675Z" fill="#19191D"/>
<path d="M418.844 277.604V206.301H470.965V222.068H427.279L438.527 210.419V243.058L427.279 234.923H469.157V250.59H427.279L438.527 242.455V277.604H418.844ZM478.472 277.604V206.301H498.156V273.487L486.908 261.837H529.188V277.604H478.472ZM568.122 279.211C560.623 279.211 554.162 277.705 548.739 274.692C543.316 271.679 539.165 267.394 536.286 261.837C533.408 256.281 531.968 249.686 531.968 242.053C531.968 234.421 533.408 227.826 536.286 222.269C539.165 216.645 543.316 212.327 548.739 209.314C554.162 206.235 560.623 204.695 568.122 204.695C575.687 204.695 582.148 206.235 587.504 209.314C592.927 212.327 597.078 216.645 599.957 222.269C602.836 227.826 604.275 234.421 604.275 242.053C604.275 249.686 602.836 256.281 599.957 261.837C597.078 267.394 592.927 271.679 587.504 274.692C582.148 277.705 575.687 279.211 568.122 279.211ZM568.122 263.444C571.469 263.444 574.315 262.607 576.658 260.934C579.068 259.26 580.909 256.85 582.182 253.703C583.454 250.489 584.09 246.606 584.09 242.053C584.09 237.501 583.454 233.618 582.182 230.404C580.909 227.19 579.068 224.747 576.658 223.073C574.315 221.332 571.469 220.462 568.122 220.462C564.774 220.462 561.895 221.332 559.485 223.073C557.142 224.747 555.334 227.19 554.062 230.404C552.79 233.618 552.154 237.501 552.154 242.053C552.154 246.606 552.79 250.489 554.062 253.703C555.334 256.85 557.142 259.26 559.485 260.934C561.895 262.607 564.774 263.444 568.122 263.444ZM625.195 277.604L605.612 206.301H625.898L636.543 250.288L647.49 206.301H663.156L674.103 250.288L684.647 206.301H704.934L685.451 277.604H665.366L655.323 238.438L645.28 277.604H625.195ZM711.717 255.912V240.647H747.067V255.912H711.717ZM756.509 277.604V206.301H776.193V273.487L764.945 261.837H807.225V277.604H756.509ZM814.274 277.604V206.301H833.958V277.604H814.274ZM845.461 277.604V206.301H875.389C884.494 206.301 891.524 207.875 896.478 211.022C901.499 214.101 904.01 219.022 904.01 225.784C904.01 228.663 903.441 231.14 902.303 233.216C901.232 235.291 899.591 236.965 897.382 238.237C895.173 239.442 892.461 240.246 889.247 240.647V240.848C895.206 241.451 899.658 243.225 902.604 246.171C905.55 249.05 907.023 252.966 907.023 257.921C907.023 264.616 904.546 269.57 899.591 272.784C894.637 275.998 887.574 277.604 878.401 277.604H845.461ZM865.145 262.54H877.096C879.975 262.54 882.385 261.971 884.326 260.833C886.335 259.628 887.339 257.753 887.339 255.209C887.339 252.665 886.369 250.791 884.427 249.585C882.485 248.38 880.042 247.778 877.096 247.778H865.145V262.54ZM865.145 234.923H874.585C877.397 234.923 879.707 234.387 881.515 233.316C883.389 232.178 884.326 230.471 884.326 228.195C884.326 225.784 883.423 224.044 881.615 222.972C879.807 221.901 877.464 221.365 874.585 221.365H865.145V234.923Z" fill="#FF9900"/>
<path d="M434.032 190.706C432.902 191.18 431.716 191.53 430.474 191.756C429.232 192.005 427.91 192.129 426.51 192.129C423.912 192.129 421.687 191.643 419.834 190.672C418.005 189.723 416.593 188.334 415.599 186.504C414.628 184.675 414.142 182.483 414.142 179.931C414.142 177.627 414.503 175.526 415.226 173.628C415.949 171.731 416.977 170.093 418.31 168.715C419.665 167.315 421.258 166.242 423.087 165.496C424.917 164.728 426.939 164.344 429.153 164.344C431.705 164.344 433.93 164.841 435.828 165.835C437.725 166.829 439.194 168.23 440.233 170.037C441.272 171.844 441.791 173.979 441.791 176.441C441.791 178.248 441.52 179.84 440.978 181.218C440.436 182.596 439.691 183.681 438.742 184.471C437.793 185.239 436.697 185.623 435.455 185.623C434.416 185.623 433.557 185.318 432.88 184.708C432.225 184.099 431.863 183.274 431.796 182.235L432.304 182.099C432.033 182.755 431.604 183.364 431.016 183.929C430.429 184.494 429.762 184.946 429.017 185.285C428.272 185.601 427.504 185.759 426.713 185.759C425.38 185.759 424.251 185.499 423.325 184.98C422.421 184.46 421.732 183.737 421.258 182.811C420.783 181.885 420.546 180.812 420.546 179.592C420.546 178.079 420.84 176.701 421.427 175.458C422.037 174.216 422.873 173.233 423.934 172.51C425.019 171.765 426.284 171.392 427.729 171.392C428.927 171.392 429.943 171.663 430.779 172.205C431.637 172.725 432.18 173.414 432.405 174.272L432.067 174.611L432.304 171.46H434.777L434.235 178.575C434.213 179.072 434.167 179.637 434.1 180.27C434.054 180.902 434.032 181.422 434.032 181.828C434.032 182.325 434.167 182.709 434.438 182.98C434.71 183.251 435.116 183.387 435.658 183.387C436.81 183.387 437.714 182.777 438.369 181.557C439.024 180.337 439.352 178.666 439.352 176.542C439.352 174.442 438.956 172.657 438.166 171.189C437.375 169.72 436.212 168.614 434.676 167.868C433.162 167.1 431.299 166.716 429.085 166.716C427.232 166.716 425.538 167.032 424.002 167.665C422.466 168.297 421.145 169.201 420.038 170.376C418.931 171.528 418.073 172.906 417.463 174.509C416.875 176.113 416.582 177.898 416.582 179.863C416.582 181.964 416.966 183.76 417.734 185.251C418.524 186.719 419.665 187.837 421.156 188.605C422.647 189.373 424.454 189.757 426.577 189.757C427.797 189.757 428.994 189.633 430.169 189.384C431.366 189.159 432.462 188.831 433.456 188.402L434.032 190.706ZM427.052 183.523C428.181 183.523 429.096 183.251 429.796 182.709C430.519 182.145 431.05 181.433 431.389 180.575C431.75 179.694 431.931 178.79 431.931 177.864C431.931 177.073 431.796 176.362 431.524 175.729C431.276 175.074 430.858 174.566 430.271 174.204C429.706 173.82 428.949 173.628 428.001 173.628C426.984 173.628 426.126 173.9 425.425 174.442C424.748 174.961 424.228 175.661 423.867 176.542C423.505 177.401 423.325 178.35 423.325 179.389C423.325 180.563 423.596 181.546 424.138 182.337C424.702 183.127 425.674 183.523 427.052 183.523ZM446.815 193.484V190.977H448.882C449.514 190.977 449.977 190.875 450.271 190.672C450.587 190.491 450.824 190.186 450.982 189.757L451.626 188.063H450.644L444.07 170.443H447.187L452.541 185.42L457.657 170.443H460.775L453.49 190.672C453.151 191.643 452.643 192.355 451.965 192.807C451.287 193.259 450.35 193.484 449.153 193.484H446.815ZM468.319 188.808C466.467 188.808 464.987 188.379 463.88 187.521C462.796 186.662 462.254 185.465 462.254 183.929C462.254 182.393 462.706 181.185 463.609 180.304C464.513 179.423 465.947 178.801 467.912 178.44L474.283 177.254C474.283 175.741 473.921 174.611 473.198 173.866C472.498 173.12 471.436 172.747 470.013 172.747C468.771 172.747 467.788 173.03 467.065 173.595C466.342 174.137 465.846 174.927 465.574 175.966L462.559 175.729C462.898 174.035 463.711 172.668 464.998 171.629C466.309 170.568 467.98 170.037 470.013 170.037C472.317 170.037 474.079 170.692 475.299 172.002C476.519 173.29 477.129 175.074 477.129 177.356V184.776C477.129 185.183 477.197 185.477 477.332 185.657C477.49 185.815 477.739 185.894 478.078 185.894H478.789V188.402C478.699 188.424 478.552 188.436 478.349 188.436C478.145 188.458 477.931 188.47 477.705 188.47C476.892 188.47 476.225 188.345 475.706 188.097C475.209 187.826 474.847 187.419 474.621 186.877C474.396 186.312 474.283 185.578 474.283 184.675L474.621 184.742C474.463 185.51 474.079 186.211 473.469 186.843C472.859 187.453 472.103 187.939 471.199 188.3C470.296 188.639 469.336 188.808 468.319 188.808ZM468.59 186.301C469.787 186.301 470.804 186.075 471.64 185.623C472.498 185.149 473.153 184.516 473.605 183.726C474.057 182.913 474.283 182.009 474.283 181.015V179.728L468.455 180.812C467.235 181.038 466.388 181.388 465.913 181.862C465.461 182.314 465.236 182.913 465.236 183.658C465.236 184.494 465.529 185.149 466.117 185.623C466.726 186.075 467.551 186.301 468.59 186.301ZM488.952 188.808C487.303 188.808 485.857 188.424 484.615 187.656C483.372 186.888 482.412 185.804 481.734 184.404C481.057 182.98 480.718 181.32 480.718 179.423C480.718 177.503 481.057 175.842 481.734 174.442C482.412 173.041 483.372 171.957 484.615 171.189C485.857 170.421 487.303 170.037 488.952 170.037C490.601 170.037 492.035 170.421 493.255 171.189C494.497 171.957 495.457 173.041 496.135 174.442C496.813 175.842 497.152 177.503 497.152 179.423C497.152 181.32 496.813 182.98 496.135 184.404C495.457 185.804 494.497 186.888 493.255 187.656C492.035 188.424 490.601 188.808 488.952 188.808ZM488.952 186.098C490.601 186.098 491.877 185.51 492.781 184.336C493.707 183.139 494.17 181.501 494.17 179.423C494.17 177.344 493.707 175.718 492.781 174.543C491.877 173.346 490.601 172.747 488.952 172.747C487.303 172.747 486.015 173.346 485.089 174.543C484.163 175.718 483.7 177.344 483.7 179.423C483.7 181.501 484.163 183.139 485.089 184.336C486.015 185.51 487.303 186.098 488.952 186.098ZM507.57 188.808C505.966 188.808 504.6 188.549 503.47 188.029C502.363 187.51 501.494 186.798 500.861 185.894C500.251 184.968 499.901 183.918 499.811 182.743L502.793 182.54C502.973 183.624 503.436 184.494 504.182 185.149C504.927 185.781 506.057 186.098 507.57 186.098C508.79 186.098 509.761 185.906 510.484 185.522C511.23 185.115 511.602 184.471 511.602 183.59C511.602 183.116 511.489 182.721 511.264 182.404C511.038 182.088 510.597 181.817 509.942 181.591C509.287 181.343 508.316 181.106 507.028 180.88C505.311 180.563 503.956 180.179 502.962 179.728C501.991 179.253 501.29 178.677 500.861 177.999C500.455 177.299 500.251 176.475 500.251 175.526C500.251 173.922 500.839 172.612 502.013 171.595C503.188 170.556 504.859 170.037 507.028 170.037C508.496 170.037 509.727 170.308 510.721 170.85C511.738 171.369 512.529 172.07 513.093 172.951C513.681 173.809 514.065 174.758 514.245 175.797L511.264 176C511.128 175.368 510.88 174.814 510.518 174.34C510.157 173.843 509.682 173.459 509.095 173.188C508.508 172.894 507.807 172.747 506.994 172.747C505.707 172.747 504.758 172.996 504.148 173.493C503.538 173.99 503.233 174.622 503.233 175.39C503.233 175.978 503.369 176.463 503.64 176.847C503.933 177.209 504.396 177.514 505.029 177.762C505.661 177.988 506.509 178.191 507.57 178.372C509.4 178.688 510.823 179.072 511.84 179.524C512.856 179.976 513.568 180.529 513.974 181.185C514.381 181.84 514.584 182.642 514.584 183.59C514.584 184.697 514.268 185.646 513.635 186.437C513.026 187.205 512.19 187.792 511.128 188.199C510.089 188.605 508.903 188.808 507.57 188.808ZM517.58 179.863V177.186H528.796V179.863H517.58ZM539.806 193.891C538.518 193.891 537.355 193.676 536.316 193.247C535.277 192.818 534.407 192.208 533.707 191.418C533.007 190.627 532.532 189.712 532.284 188.673L535.266 188.47C535.537 189.305 536.011 189.961 536.689 190.435C537.389 190.932 538.428 191.18 539.806 191.18C541.432 191.18 542.675 190.853 543.533 190.198C544.414 189.543 544.855 188.56 544.855 187.25V184.336C544.426 185.285 543.737 186.041 542.788 186.606C541.839 187.171 540.777 187.453 539.603 187.453C538.089 187.453 536.734 187.08 535.537 186.335C534.362 185.589 533.436 184.562 532.758 183.251C532.103 181.941 531.776 180.439 531.776 178.745C531.776 177.028 532.103 175.526 532.758 174.238C533.413 172.928 534.317 171.9 535.469 171.155C536.644 170.409 537.976 170.037 539.467 170.037C540.732 170.037 541.862 170.33 542.856 170.918C543.872 171.505 544.584 172.296 544.99 173.29V170.443H547.701V187.182C547.701 188.583 547.385 189.78 546.752 190.774C546.12 191.79 545.216 192.558 544.042 193.078C542.867 193.62 541.455 193.891 539.806 193.891ZM539.738 184.742C541.274 184.742 542.505 184.212 543.432 183.15C544.358 182.066 544.832 180.597 544.855 178.745C544.877 177.503 544.674 176.441 544.245 175.56C543.838 174.656 543.24 173.967 542.449 173.493C541.681 172.996 540.777 172.747 539.738 172.747C538.157 172.747 536.926 173.29 536.045 174.374C535.187 175.436 534.757 176.893 534.757 178.745C534.757 180.597 535.198 182.066 536.079 183.15C536.982 184.212 538.202 184.742 539.738 184.742ZM552.618 188.402V170.443H555.464V188.402H552.618ZM552.55 167.631V164.31H555.532V167.631H552.55ZM566.107 188.402C564.48 188.402 563.272 188.029 562.481 187.284C561.713 186.538 561.329 185.375 561.329 183.794V166.242H564.176V183.726C564.176 184.539 564.356 185.104 564.718 185.42C565.079 185.736 565.633 185.894 566.378 185.894H568.953V188.402H566.107ZM558.686 172.951V170.443H568.953V172.951H558.686ZM571.778 192.129L581.774 162.989H584.484L574.489 192.129H571.778Z" fill="#666F76"/>
</svg>
