<svg width="1560" height="488" viewBox="0 0 1560 488" fill="none" xmlns="http://www.w3.org/2000/svg" xmlns:xlink="http://www.w3.org/1999/xlink">
<g clip-path="url(#clip0_88_23)">
<path d="M1348.74 213.228C1351.78 210.189 1351.78 205.263 1348.74 202.225L1103.18 -43.3388C1100.14 -46.3772 1100.14 -51.3035 1103.18 -54.342L1236.29 -187.451C1239.33 -190.49 1244.26 -190.49 1247.29 -187.451L1636.97 202.222C1640.01 205.261 1640.01 210.187 1636.97 213.226L1247.29 602.899C1244.26 605.938 1239.33 605.938 1236.29 602.899L1103.18 469.792C1100.14 466.754 1100.14 461.827 1103.18 458.789L1348.74 213.228Z" fill="#666F76"/>
<path d="M1805.23 213.228C1808.27 210.189 1808.27 205.263 1805.23 202.224L1559.67 -43.3397C1556.63 -46.3781 1556.63 -51.3044 1559.67 -54.3428L1692.78 -187.451C1695.82 -190.489 1700.74 -190.489 1703.78 -187.451L2093.46 202.223C2096.49 205.261 2096.49 210.188 2093.46 213.226L1703.78 602.9C1700.74 605.938 1695.82 605.938 1692.78 602.9L1559.67 469.793C1556.63 466.755 1556.63 461.829 1559.67 458.79L1805.23 213.228Z" fill="#666F76"/>
<path d="M779.58 112.691C776.542 109.653 771.615 109.653 768.577 112.691L523.014 358.255C519.975 361.293 515.049 361.293 512.01 358.255L378.903 225.147C375.864 222.108 375.864 217.182 378.903 214.144L768.576 -175.53C771.615 -178.568 776.541 -178.568 779.579 -175.53L1169.25 214.143C1172.29 217.181 1172.29 222.108 1169.25 225.146L1036.15 358.253C1033.11 361.292 1028.18 361.292 1025.14 358.253L779.58 112.691Z" fill="#666F76"/>
<path d="M779.675 537.148C777.312 534.785 773.481 534.785 771.118 537.148L580.155 728.111C577.792 730.474 573.961 730.474 571.598 728.111L468.087 624.6C465.724 622.237 465.724 618.406 468.087 616.043L771.118 313.012C773.48 310.649 777.311 310.649 779.674 313.012L1082.71 616.043C1085.07 618.406 1085.07 622.237 1082.71 624.6L979.194 728.11C976.831 730.473 973 730.473 970.638 728.11L779.675 537.148Z" fill="url(#pattern0_88_23)"/>
<path d="M211.254 214.14C208.216 217.179 208.216 222.105 211.254 225.144L456.817 470.706C459.856 473.745 459.856 478.671 456.817 481.709L323.709 614.818C320.67 617.856 315.744 617.856 312.705 614.818L-76.9681 225.144C-80.0066 222.106 -80.0066 217.179 -76.9682 214.141L312.705 -175.533C315.744 -178.571 320.67 -178.571 323.709 -175.533L456.816 -42.4248C459.855 -39.3863 459.855 -34.46 456.816 -31.4216L211.254 214.14Z" fill="url(#pattern1_88_23)"/>
<path d="M-245.235 214.14C-248.274 217.179 -248.274 222.105 -245.235 225.144L0.328145 470.707C3.36659 473.745 3.36659 478.672 0.328141 481.71L-132.78 614.818C-135.818 617.856 -140.744 617.856 -143.783 614.818L-533.456 225.144C-536.495 222.106 -536.495 217.179 -533.456 214.141L-143.783 -175.533C-140.744 -178.571 -135.818 -178.571 -132.78 -175.533L0.327454 -42.4255C3.3659 -39.387 3.3659 -34.4607 0.327451 -31.4223L-245.235 214.14Z" fill="#666F76"/>
<mask id="path-9-outside-1_88_23" maskUnits="userSpaceOnUse" x="480.143" y="125.645" width="636" height="188" fill="black">
<rect fill="white" x="480.143" y="125.645" width="636" height="188"/>
<path d="M555.37 296.645V238.906L502.406 142.53H548.423L576.859 198.098L604.86 142.53H650.877L598.131 238.906V296.645H555.37ZM633.539 296.645L689.108 142.53H737.513L793.081 296.645H749.668L740.986 271.249H685.418L676.735 296.645H633.539ZM696.705 238.255H729.916L713.419 189.416L696.705 238.255ZM873.108 300.118C856.9 300.118 842.936 296.862 831.215 290.35C819.493 283.838 810.521 274.577 804.299 262.566C798.076 250.555 794.965 236.301 794.965 219.805C794.965 203.308 798.076 189.054 804.299 177.043C810.521 164.888 819.493 155.554 831.215 149.042C842.936 142.385 856.9 139.057 873.108 139.057C889.46 139.057 903.424 142.385 915.001 149.042C926.722 155.554 935.694 164.888 941.917 177.043C948.139 189.054 951.251 203.308 951.251 219.805C951.251 236.301 948.139 250.555 941.917 262.566C935.694 274.577 926.722 283.838 915.001 290.35C903.424 296.862 889.46 300.118 873.108 300.118ZM873.108 266.039C880.343 266.039 886.493 264.23 891.558 260.613C896.768 256.995 900.747 251.785 903.497 244.984C906.246 238.038 907.621 229.645 907.621 219.805C907.621 209.964 906.246 201.571 903.497 194.625C900.747 187.679 896.768 182.397 891.558 178.78C886.493 175.017 880.343 173.136 873.108 173.136C865.872 173.136 859.65 175.017 854.44 178.78C849.376 182.397 845.468 187.679 842.719 194.625C839.969 201.571 838.595 209.964 838.595 219.805C838.595 229.645 839.969 238.038 842.719 244.984C845.468 251.785 849.376 256.995 854.44 260.613C859.65 264.23 865.872 266.039 873.108 266.039ZM1039.55 300.118C1025.37 300.118 1013.29 297.875 1003.3 293.389C993.319 288.903 985.577 282.536 980.078 274.287C974.579 266.039 971.467 256.271 970.744 244.984L1013.07 243.03C1013.79 248.095 1015.24 252.436 1017.41 256.054C1019.58 259.527 1022.48 262.204 1026.1 264.086C1029.86 265.822 1034.49 266.69 1039.99 266.69C1044.33 266.69 1048.02 266.256 1051.06 265.388C1054.1 264.375 1056.41 262.855 1058 260.83C1059.6 258.804 1060.39 256.271 1060.39 253.232C1060.39 250.483 1059.67 248.095 1058.22 246.069C1056.92 243.899 1054.24 242.017 1050.19 240.426C1046.28 238.689 1040.42 237.025 1032.61 235.433C1018.57 232.539 1007.21 229.211 998.528 225.448C989.845 221.541 983.478 216.549 979.426 210.471C975.519 204.393 973.566 196.651 973.566 187.245C973.566 177.694 976.026 169.301 980.946 162.066C985.866 154.83 992.957 149.187 1002.22 145.135C1011.48 141.083 1022.62 139.057 1035.65 139.057C1049.39 139.057 1060.9 141.372 1070.16 146.003C1079.42 150.634 1086.58 157.001 1091.65 165.105C1096.86 173.208 1099.97 182.614 1100.98 193.323L1059.09 195.059C1058.8 190.284 1057.64 186.232 1055.62 182.904C1053.59 179.576 1050.84 177.043 1047.37 175.307C1044.04 173.425 1039.99 172.485 1035.21 172.485C1029.13 172.485 1024.43 173.715 1021.1 176.175C1017.77 178.635 1016.11 181.891 1016.11 185.943C1016.11 189.126 1016.91 191.803 1018.5 193.974C1020.23 196.145 1022.98 197.954 1026.75 199.401C1030.65 200.848 1035.94 202.15 1042.59 203.308C1057.79 205.913 1069.8 209.458 1078.62 213.944C1087.45 218.43 1093.67 223.784 1097.29 230.007C1101.05 236.229 1102.94 243.392 1102.94 251.496C1102.94 261.481 1100.4 270.163 1095.34 277.543C1090.42 284.779 1083.18 290.35 1073.63 294.257C1064.23 298.164 1052.87 300.118 1039.55 300.118Z"/>
</mask>
<path d="M555.37 296.645H542.529V309.486H555.37V296.645ZM555.37 238.906H568.21V235.61L566.623 232.722L555.37 238.906ZM502.406 142.53V129.689H480.698L491.153 148.714L502.406 142.53ZM548.424 142.53L559.854 136.681L556.277 129.689H548.424V142.53ZM576.859 198.098L565.428 203.948L576.947 226.458L588.326 203.877L576.859 198.098ZM604.86 142.53V129.689H596.952L593.393 136.752L604.86 142.53ZM650.877 142.53L662.141 148.695L672.543 129.689H650.877V142.53ZM598.131 238.906L586.867 232.741L585.29 235.622V238.906H598.131ZM598.131 296.645V309.486H610.972V296.645H598.131ZM555.37 296.645H568.21V238.906H555.37H542.529V296.645H555.37ZM555.37 238.906L566.623 232.722L513.659 136.346L502.406 142.53L491.153 148.714L544.116 245.09L555.37 238.906ZM502.406 142.53V155.371H548.424V142.53V129.689H502.406V142.53ZM548.424 142.53L536.993 148.379L565.428 203.948L576.859 198.098L588.29 192.249L559.854 136.681L548.424 142.53ZM576.859 198.098L588.326 203.877L616.327 148.308L604.86 142.53L593.393 136.752L565.392 192.32L576.859 198.098ZM604.86 142.53V155.371H650.877V142.53V129.689H604.86V142.53ZM650.877 142.53L639.613 136.365L586.867 232.741L598.131 238.906L609.395 245.071L662.141 148.695L650.877 142.53ZM598.131 238.906H585.29V296.645H598.131H610.972V238.906H598.131ZM598.131 296.645V283.804H555.37V296.645V309.486H598.131V296.645ZM633.539 296.645L621.46 292.29L615.26 309.486H633.539V296.645ZM689.108 142.53V129.689H680.088L677.028 138.175L689.108 142.53ZM737.513 142.53L749.592 138.175L746.533 129.689H737.513V142.53ZM793.081 296.645V309.486H811.361L805.16 292.29L793.081 296.645ZM749.668 296.645L737.518 300.799L740.488 309.486H749.668V296.645ZM740.986 271.249L753.136 267.095L750.166 258.408H740.986V271.249ZM685.418 271.249V258.408H676.237L673.267 267.095L685.418 271.249ZM676.735 296.645V309.486H685.915L688.885 300.799L676.735 296.645ZM696.705 238.255L684.556 234.097L678.739 251.096H696.705V238.255ZM729.916 238.255V251.096H747.806L742.081 234.146L729.916 238.255ZM713.419 189.416L725.584 185.307L713.498 149.526L701.27 185.258L713.419 189.416ZM633.539 296.645L645.619 301L701.187 146.885L689.108 142.53L677.028 138.175L621.46 292.29L633.539 296.645ZM689.108 142.53V155.371H737.513V142.53V129.689H689.108V142.53ZM737.513 142.53L725.433 146.885L781.002 301L793.081 296.645L805.16 292.29L749.592 138.175L737.513 142.53ZM793.081 296.645V283.804H749.668V296.645V309.486H793.081V296.645ZM749.668 296.645L761.819 292.491L753.136 267.095L740.986 271.249L728.836 275.403L737.518 300.799L749.668 296.645ZM740.986 271.249V258.408H685.418V271.249V284.089H740.986V271.249ZM685.418 271.249L673.267 267.095L664.585 292.491L676.735 296.645L688.885 300.799L697.568 275.403L685.418 271.249ZM676.735 296.645V283.804H633.539V296.645V309.486H676.735V296.645ZM696.705 238.255V251.096H729.916V238.255V225.414H696.705V238.255ZM729.916 238.255L742.081 234.146L725.584 185.307L713.419 189.416L701.253 193.525L717.75 242.364L729.916 238.255ZM713.419 189.416L701.27 185.258L684.556 234.097L696.705 238.255L708.854 242.413L725.568 193.573L713.419 189.416ZM831.215 290.35L837.451 279.125V279.125L831.215 290.35ZM804.299 262.566L815.7 256.659V256.659L804.299 262.566ZM804.299 177.043L815.7 182.95L815.715 182.922L815.729 182.894L804.299 177.043ZM831.215 149.042L837.451 160.267L837.503 160.237L837.556 160.208L831.215 149.042ZM915.001 149.042L908.6 160.174L908.682 160.221L908.765 160.267L915.001 149.042ZM941.917 177.043L930.487 182.894L930.501 182.922L930.516 182.95L941.917 177.043ZM941.917 262.566L930.516 256.659V256.659L941.917 262.566ZM915.001 290.35L908.765 279.125L908.735 279.142L908.706 279.159L915.001 290.35ZM891.558 260.613L884.234 250.066L884.164 250.114L884.095 250.164L891.558 260.613ZM903.497 244.984L915.401 249.796L915.419 249.753L915.436 249.71L903.497 244.984ZM903.497 194.625L915.436 189.899V189.899L903.497 194.625ZM891.558 178.78L883.901 189.087L884.066 189.21L884.234 189.327L891.558 178.78ZM854.44 178.78L861.904 189.228L861.931 189.209L861.958 189.189L854.44 178.78ZM842.719 194.625L854.658 199.351V199.351L842.719 194.625ZM842.719 244.984L830.78 249.71L830.797 249.753L830.814 249.796L842.719 244.984ZM854.44 260.613L846.977 271.061L847.046 271.111L847.116 271.159L854.44 260.613ZM873.108 300.118V287.277C858.629 287.277 846.904 284.377 837.451 279.125L831.215 290.35L824.979 301.575C838.968 309.347 855.172 312.959 873.108 312.959V300.118ZM831.215 290.35L837.451 279.125C827.957 273.851 820.772 266.449 815.7 256.659L804.299 262.566L792.897 268.473C800.27 282.705 811.029 293.825 824.979 301.575L831.215 290.35ZM804.299 262.566L815.7 256.659C810.609 246.832 807.806 234.691 807.806 219.805H794.965H782.124C782.124 237.912 785.544 254.278 792.897 268.473L804.299 262.566ZM794.965 219.805H807.806C807.806 204.918 810.609 192.777 815.7 182.95L804.299 177.043L792.897 171.136C785.544 185.331 782.124 201.698 782.124 219.805H794.965ZM804.299 177.043L815.729 182.894C820.814 172.961 827.998 165.518 837.451 160.267L831.215 149.042L824.979 137.817C810.988 145.59 800.229 156.814 792.869 171.192L804.299 177.043ZM831.215 149.042L837.556 160.208C846.988 154.851 858.674 151.898 873.108 151.898V139.057V126.216C855.127 126.216 838.884 129.919 824.874 137.876L831.215 149.042ZM873.108 139.057V151.898C887.715 151.898 899.364 154.863 908.6 160.174L915.001 149.042L921.402 137.91C907.485 129.908 891.205 126.216 873.108 126.216V139.057ZM915.001 149.042L908.765 160.267C918.217 165.518 925.402 172.961 930.487 182.894L941.917 177.043L953.347 171.192C945.987 156.814 935.228 145.59 921.237 137.817L915.001 149.042ZM941.917 177.043L930.516 182.95C935.607 192.777 938.41 204.918 938.41 219.805H951.251H964.091C964.091 201.698 960.672 185.331 953.318 171.136L941.917 177.043ZM951.251 219.805H938.41C938.41 234.691 935.607 246.832 930.516 256.659L941.917 262.566L953.318 268.473C960.672 254.278 964.091 237.912 964.091 219.805H951.251ZM941.917 262.566L930.516 256.659C925.444 266.449 918.259 273.851 908.765 279.125L915.001 290.35L921.237 301.575C935.186 293.825 945.945 282.705 953.318 268.473L941.917 262.566ZM915.001 290.35L908.706 279.159C899.448 284.366 887.76 287.277 873.108 287.277V300.118V312.959C891.16 312.959 907.401 309.358 921.296 301.542L915.001 290.35ZM873.108 266.039V278.88C882.571 278.88 891.44 276.477 899.022 271.061L891.558 260.613L884.095 250.164C881.547 251.984 878.116 253.198 873.108 253.198V266.039ZM891.558 260.613L898.882 271.159C906.45 265.904 911.866 258.542 915.401 249.796L903.497 244.984L891.592 240.171C889.629 245.028 887.085 248.086 884.234 250.066L891.558 260.613ZM903.497 244.984L915.436 249.71C918.937 240.865 920.462 230.777 920.462 219.805H907.621H894.78C894.78 228.513 893.555 235.21 891.557 240.258L903.497 244.984ZM907.621 219.805H920.462C920.462 208.832 918.937 198.744 915.436 189.899L903.497 194.625L891.557 199.351C893.555 204.399 894.78 211.096 894.78 219.805H907.621ZM903.497 194.625L915.436 189.899C911.924 181.028 906.518 173.535 898.882 168.233L891.558 178.78L884.234 189.327C887.018 191.26 889.57 194.331 891.557 199.351L903.497 194.625ZM891.558 178.78L899.215 168.472C891.62 162.83 882.68 160.295 873.108 160.295V173.136V185.977C878.007 185.977 881.366 187.205 883.901 189.087L891.558 178.78ZM873.108 173.136V160.295C863.528 160.295 854.591 162.831 846.922 168.37L854.44 178.78L861.958 189.189C864.709 187.203 868.217 185.977 873.108 185.977V173.136ZM854.44 178.78L846.977 168.331C839.528 173.651 834.255 181.12 830.78 189.899L842.719 194.625L854.658 199.351C856.682 194.238 859.223 191.144 861.904 189.228L854.44 178.78ZM842.719 194.625L830.78 189.899C827.279 198.744 825.754 208.832 825.754 219.805H838.595H851.435C851.435 211.096 852.66 204.399 854.658 199.351L842.719 194.625ZM838.595 219.805H825.754C825.754 230.777 827.279 240.865 830.78 249.71L842.719 244.984L854.658 240.258C852.66 235.21 851.435 228.513 851.435 219.805H838.595ZM842.719 244.984L830.814 249.796C834.312 258.45 839.594 265.788 846.977 271.061L854.44 260.613L861.904 250.164C859.157 248.202 856.624 245.121 854.624 240.171L842.719 244.984ZM854.44 260.613L847.116 271.159C854.77 276.474 863.636 278.88 873.108 278.88V266.039V253.198C868.109 253.198 864.53 251.986 861.765 250.066L854.44 260.613ZM1003.3 293.389L998.041 305.102V305.102L1003.3 293.389ZM980.078 274.287L969.394 281.41V281.41L980.078 274.287ZM970.744 244.984L970.152 232.157L957.093 232.76L957.93 245.805L970.744 244.984ZM1013.07 243.03L1025.78 241.214L1024.13 229.666L1012.48 230.203L1013.07 243.03ZM1017.41 256.054L1006.4 262.661L1006.46 262.761L1006.52 262.86L1017.41 256.054ZM1026.1 264.086L1020.17 275.478L1020.44 275.618L1020.71 275.744L1026.1 264.086ZM1051.06 265.388L1054.58 277.734L1054.85 277.658L1055.12 277.57L1051.06 265.388ZM1058.22 246.069L1047.21 252.676L1047.47 253.115L1047.77 253.533L1058.22 246.069ZM1050.19 240.426L1044.97 252.16L1045.23 252.274L1045.49 252.377L1050.19 240.426ZM1032.61 235.433L1030.01 248.009L1030.03 248.012L1030.04 248.015L1032.61 235.433ZM998.528 225.448L993.259 237.158L993.34 237.195L993.422 237.23L998.528 225.448ZM979.426 210.471L968.625 217.415L968.683 217.505L968.742 217.594L979.426 210.471ZM980.946 162.066L991.564 169.286V169.286L980.946 162.066ZM1070.16 146.003L1064.42 157.488L1064.42 157.488L1070.16 146.003ZM1091.65 165.105L1080.76 171.91L1080.8 171.98L1080.85 172.048L1091.65 165.105ZM1100.98 193.323L1101.51 206.152L1115.04 205.592L1113.77 192.114L1100.98 193.323ZM1059.09 195.059L1046.27 195.836L1047.03 208.411L1059.62 207.889L1059.09 195.059ZM1047.37 175.307L1041.05 186.485L1041.33 186.646L1041.62 186.792L1047.37 175.307ZM1021.1 176.175L1028.73 186.501V186.501L1021.1 176.175ZM1018.5 193.974L1008.14 201.568L1008.3 201.785L1008.47 201.996L1018.5 193.974ZM1026.75 199.401L1022.14 211.385L1022.21 211.414L1022.29 211.442L1026.75 199.401ZM1042.59 203.308L1040.39 215.959L1040.41 215.961L1040.42 215.964L1042.59 203.308ZM1078.62 213.944L1072.81 225.391V225.391L1078.62 213.944ZM1097.29 230.007L1086.19 236.461L1086.25 236.556L1086.3 236.651L1097.29 230.007ZM1095.34 277.543L1084.75 270.278L1084.74 270.3L1084.72 270.323L1095.34 277.543ZM1073.63 294.257L1068.77 282.373L1068.74 282.386L1068.71 282.399L1073.63 294.257ZM1039.55 300.118V287.277C1026.67 287.277 1016.48 285.234 1008.57 281.676L1003.3 293.389L998.041 305.102C1010.09 310.516 1024.07 312.959 1039.55 312.959V300.118ZM1003.3 293.389L1008.57 281.676C1000.55 278.073 994.784 273.198 990.762 267.165L980.078 274.287L969.394 281.41C976.37 291.874 986.091 299.733 998.041 305.102L1003.3 293.389ZM980.078 274.287L990.762 267.165C986.682 261.045 984.158 253.521 983.558 244.163L970.744 244.984L957.93 245.805C958.777 259.021 962.476 271.033 969.394 281.41L980.078 274.287ZM970.744 244.984L971.336 257.811L1013.66 255.857L1013.07 243.03L1012.48 230.203L970.152 232.157L970.744 244.984ZM1013.07 243.03L1000.36 244.846C1001.28 251.254 1003.18 257.299 1006.4 262.661L1017.41 256.054L1028.42 249.448C1027.3 247.574 1026.31 244.937 1025.78 241.214L1013.07 243.03ZM1017.41 256.054L1006.52 262.86C1009.9 268.269 1014.51 272.534 1020.17 275.478L1026.1 264.086L1032.02 252.693C1030.45 251.875 1029.26 250.786 1028.3 249.249L1017.41 256.054ZM1026.1 264.086L1020.71 275.744C1026.62 278.47 1033.21 279.531 1039.99 279.531V266.69V253.85C1035.77 253.85 1033.09 253.174 1031.48 252.427L1026.1 264.086ZM1039.99 266.69V279.531C1045.11 279.531 1050.06 279.027 1054.58 277.734L1051.06 265.388L1047.53 253.041C1045.98 253.485 1043.55 253.85 1039.99 253.85V266.69ZM1051.06 265.388L1055.12 277.57C1059.96 275.956 1064.62 273.198 1068.1 268.763L1058 260.83L1047.91 252.896C1048.03 252.737 1048.11 252.699 1048.03 252.753C1047.93 252.817 1047.62 252.997 1047 253.206L1051.06 265.388ZM1058 260.83L1068.1 268.763C1071.78 264.086 1073.23 258.611 1073.23 253.232H1060.39H1047.55C1047.55 253.631 1047.5 253.706 1047.54 253.561C1047.57 253.49 1047.61 253.384 1047.67 253.257C1047.74 253.13 1047.82 253.007 1047.91 252.896L1058 260.83ZM1060.39 253.232H1073.23C1073.23 248.099 1071.83 243.036 1068.67 238.606L1058.22 246.069L1047.77 253.533C1047.73 253.478 1047.69 253.406 1047.65 253.323C1047.61 253.24 1047.58 253.164 1047.56 253.103C1047.52 252.974 1047.55 252.992 1047.55 253.232H1060.39ZM1058.22 246.069L1069.23 239.463C1065.75 233.655 1059.86 230.431 1054.88 228.474L1050.19 240.426L1045.49 252.377C1046.86 252.914 1047.57 253.339 1047.85 253.536C1048.14 253.735 1047.71 253.51 1047.21 252.676L1058.22 246.069ZM1050.19 240.426L1055.4 228.692C1050.21 226.382 1043.26 224.498 1035.17 222.851L1032.61 235.433L1030.04 248.015C1037.59 249.552 1042.36 250.997 1044.97 252.16L1050.19 240.426ZM1032.61 235.433L1035.2 222.857C1021.63 220.06 1011.21 216.949 1003.63 213.666L998.528 225.448L993.422 237.23C1003.21 241.472 1015.51 245.018 1030.01 248.009L1032.61 235.433ZM998.528 225.448L1003.8 213.739C996.659 210.527 992.475 206.895 990.111 203.348L979.426 210.471L968.742 217.594C974.482 226.203 983.032 232.556 993.259 237.158L998.528 225.448ZM979.426 210.471L990.228 203.527C987.999 200.06 986.406 194.921 986.406 187.245H973.566H960.725C960.725 198.382 963.04 208.726 968.625 217.415L979.426 210.471ZM973.566 187.245H986.406C986.406 180.023 988.225 174.197 991.564 169.286L980.946 162.066L970.328 154.845C963.827 164.405 960.725 175.366 960.725 187.245H973.566ZM980.946 162.066L991.564 169.286C994.924 164.345 999.968 160.135 1007.36 156.899L1002.22 145.135L997.071 133.371C985.946 138.238 976.808 145.315 970.328 154.845L980.946 162.066ZM1002.22 145.135L1007.36 156.899C1014.61 153.73 1023.9 151.898 1035.65 151.898V139.057V126.216C1021.34 126.216 1008.35 128.436 997.071 133.371L1002.22 145.135ZM1035.65 139.057V151.898C1048.03 151.898 1057.42 153.992 1064.42 157.488L1070.16 146.003L1075.9 134.518C1064.37 128.753 1050.76 126.216 1035.65 126.216V139.057ZM1070.16 146.003L1064.42 157.488C1071.75 161.154 1077.05 165.977 1080.76 171.91L1091.65 165.105L1102.54 158.299C1096.12 148.025 1087.09 140.114 1075.9 134.518L1070.16 146.003ZM1091.65 165.105L1080.85 172.048C1084.82 178.233 1087.36 185.625 1088.2 194.532L1100.98 193.323L1113.77 192.114C1112.58 179.604 1108.89 168.183 1102.45 158.161L1091.65 165.105ZM1100.98 193.323L1100.45 180.493L1058.56 182.23L1059.09 195.059L1059.62 207.889L1101.51 206.152L1100.98 193.323ZM1059.09 195.059L1071.91 194.283C1071.52 187.889 1069.92 181.705 1066.58 176.227L1055.62 182.904L1044.65 189.58C1045.36 190.759 1046.08 192.679 1046.27 195.836L1059.09 195.059ZM1055.62 182.904L1066.58 176.227C1063.31 170.844 1058.75 166.642 1053.11 163.822L1047.37 175.307L1041.62 186.792C1042.93 187.444 1043.87 188.307 1044.65 189.58L1055.62 182.904ZM1047.37 175.307L1053.69 164.128C1048.01 160.918 1041.66 159.644 1035.21 159.644V172.485V185.325C1038.32 185.325 1040.07 185.933 1041.05 186.485L1047.37 175.307ZM1035.21 172.485V159.644C1027.62 159.644 1019.83 161.15 1013.47 165.849L1021.1 176.175L1028.73 186.501C1029.03 186.279 1030.65 185.325 1035.21 185.325V172.485ZM1021.1 176.175L1013.47 165.849C1006.95 170.669 1003.27 177.715 1003.27 185.943H1016.11H1028.95C1028.95 185.812 1028.96 185.81 1028.94 185.904C1028.92 186.004 1028.87 186.148 1028.79 186.306C1028.71 186.463 1028.63 186.568 1028.59 186.616C1028.55 186.66 1028.58 186.614 1028.73 186.501L1021.1 176.175ZM1016.11 185.943H1003.27C1003.27 191.343 1004.66 196.813 1008.14 201.568L1018.5 193.974L1028.85 186.381C1028.9 186.445 1028.94 186.513 1028.97 186.577C1029 186.641 1029.02 186.679 1029.02 186.679C1029.01 186.678 1029 186.625 1028.98 186.508C1028.97 186.389 1028.95 186.204 1028.95 185.943H1016.11ZM1018.5 193.974L1008.47 201.996C1012.13 206.569 1017.15 209.466 1022.14 211.385L1026.75 199.401L1031.36 187.416C1030.15 186.952 1029.38 186.532 1028.92 186.231C1028.47 185.935 1028.41 185.813 1028.52 185.953L1018.5 193.974ZM1026.75 199.401L1022.29 211.442C1027.24 213.275 1033.38 214.738 1040.39 215.959L1042.59 203.308L1044.79 190.657C1038.49 189.562 1034.07 188.421 1031.21 187.359L1026.75 199.401ZM1042.59 203.308L1040.42 215.964C1054.97 218.458 1065.58 221.719 1072.81 225.391L1078.62 213.944L1084.44 202.497C1074.01 197.197 1060.6 193.367 1044.76 190.652L1042.59 203.308ZM1078.62 213.944L1072.81 225.391C1080.23 229.163 1084.2 233.039 1086.19 236.461L1097.29 230.007L1108.39 223.553C1103.15 214.529 1094.67 207.697 1084.44 202.497L1078.62 213.944ZM1097.29 230.007L1086.3 236.651C1088.72 240.645 1090.09 245.459 1090.09 251.496H1102.94H1115.78C1115.78 241.325 1113.39 231.813 1108.28 223.363L1097.29 230.007ZM1102.94 251.496H1090.09C1090.09 259.199 1088.18 265.28 1084.75 270.278L1095.34 277.543L1105.93 284.809C1112.63 275.047 1115.78 263.763 1115.78 251.496H1102.94ZM1095.34 277.543L1084.72 270.323C1081.46 275.12 1076.41 279.246 1068.77 282.373L1073.63 294.257L1078.49 306.142C1089.95 301.454 1099.38 294.437 1105.96 284.764L1095.34 277.543ZM1073.63 294.257L1068.71 282.399C1061.26 285.492 1051.67 287.277 1039.55 287.277V300.118V312.959C1054.06 312.959 1067.19 310.837 1078.56 306.116L1073.63 294.257Z" fill="#19191D" mask="url(#path-9-outside-1_88_23)"/>
<mask id="path-11-outside-2_88_23" maskUnits="userSpaceOnUse" x="1107.93" y="174.182" width="243" height="137" fill="black">
<rect fill="white" x="1107.93" y="174.182" width="243" height="137"/>
<path d="M1170.3 297.545C1160.06 297.545 1151.25 295.281 1143.87 290.752C1136.48 286.125 1130.78 279.727 1126.74 271.556C1122.8 263.385 1120.83 253.836 1120.83 242.909C1120.83 232.375 1122.85 222.974 1126.89 214.705C1131.02 206.436 1136.93 199.938 1144.61 195.213C1152.28 190.389 1161.54 187.978 1172.37 187.978C1181.92 187.978 1189.94 189.503 1196.44 192.555C1203.03 195.508 1208.3 199.84 1212.24 205.55C1216.27 211.259 1219.13 218.15 1220.8 226.223L1190.83 227.404C1189.94 222.187 1188.07 218.2 1185.21 215.443C1182.36 212.588 1178.18 211.161 1172.66 211.161C1167.94 211.161 1163.9 212.49 1160.55 215.148C1157.31 217.806 1154.8 221.497 1153.02 226.223C1151.35 230.948 1150.51 236.51 1150.51 242.909C1150.51 249.209 1151.3 254.722 1152.88 259.447C1154.55 264.173 1157.06 267.864 1160.41 270.522C1163.75 273.082 1168.04 274.361 1173.25 274.361C1176.9 274.361 1180 273.771 1182.56 272.589C1185.21 271.31 1187.33 269.538 1188.91 267.274C1190.58 264.911 1191.66 262.105 1192.15 258.857H1172.52V239.66H1221.1V295.182H1204.26L1202.79 273.918L1206.03 274.509C1205.15 279.136 1203.03 283.172 1199.69 286.618C1196.44 290.063 1192.25 292.77 1187.13 294.739C1182.11 296.61 1176.5 297.545 1170.3 297.545ZM1235.96 295.182V215.443H1264.61V295.182H1235.96ZM1235.52 207.469V187.387H1265.05V207.469H1235.52ZM1313.52 295.182C1304.56 295.182 1298.01 293.115 1293.88 288.98C1289.74 284.747 1287.68 278.053 1287.68 268.898V196.69H1316.32V264.763C1316.32 268.701 1317.11 271.408 1318.68 272.885C1320.36 274.263 1322.87 274.952 1326.22 274.952H1337.14V295.182H1313.52ZM1274.09 235.673V215.443H1337.14V235.673H1274.09Z"/>
</mask>
<path d="M1143.87 290.752L1137.05 301.633L1137.1 301.666L1137.15 301.698L1143.87 290.752ZM1126.74 271.556L1115.17 277.13L1115.2 277.187L1115.23 277.243L1126.74 271.556ZM1126.89 214.705L1115.4 208.962L1115.37 209.017L1115.35 209.073L1126.89 214.705ZM1144.61 195.213L1151.34 206.149L1151.39 206.118L1151.44 206.086L1144.61 195.213ZM1196.44 192.555L1190.98 204.178L1191.08 204.227L1191.19 204.275L1196.44 192.555ZM1212.24 205.55L1201.67 212.84L1201.71 212.901L1201.75 212.962L1212.24 205.55ZM1220.8 226.223L1221.31 239.053L1236.45 238.457L1233.37 223.616L1220.8 226.223ZM1190.83 227.404L1178.17 229.554L1180.06 240.679L1191.33 240.235L1190.83 227.404ZM1185.21 215.443L1176.13 224.523L1176.21 224.603L1176.3 224.681L1185.21 215.443ZM1160.55 215.148L1152.57 205.092L1152.5 205.15L1152.42 205.21L1160.55 215.148ZM1153.02 226.223L1141 221.714L1140.96 221.825L1140.92 221.936L1153.02 226.223ZM1152.88 259.447L1140.69 263.508L1140.73 263.621L1140.77 263.734L1152.88 259.447ZM1160.41 270.522L1152.42 280.578L1152.51 280.651L1152.61 280.722L1160.41 270.522ZM1182.56 272.589L1187.94 284.248L1188.03 284.204L1188.13 284.159L1182.56 272.589ZM1188.91 267.273L1178.43 259.851L1178.4 259.896L1178.36 259.941L1188.91 267.273ZM1192.15 258.857L1204.85 260.78L1207.09 246.016H1192.15V258.857ZM1172.52 258.857H1159.67V271.697H1172.52V258.857ZM1172.52 239.66V226.82H1159.67V239.66H1172.52ZM1221.1 239.66H1233.94V226.82H1221.1V239.66ZM1221.1 295.182V308.023H1233.94V295.182H1221.1ZM1204.26 295.182L1191.45 296.072L1192.28 308.023H1204.26V295.182ZM1202.79 273.918L1205.08 261.285L1188.83 258.33L1189.98 274.808L1202.79 273.918ZM1206.03 274.509L1218.65 276.924L1221.08 264.194L1208.33 261.876L1206.03 274.509ZM1199.69 286.618L1190.47 277.67L1190.41 277.739L1190.34 277.809L1199.69 286.618ZM1187.13 294.739L1191.62 306.772L1191.68 306.748L1191.74 306.724L1187.13 294.739ZM1170.3 297.545V284.704C1162 284.704 1155.6 282.886 1150.58 279.806L1143.87 290.752L1137.15 301.698C1146.9 307.675 1158.13 310.385 1170.3 310.385V297.545ZM1143.87 290.752L1150.69 279.872C1145.41 276.567 1141.28 272.01 1138.25 265.869L1126.74 271.556L1115.23 277.243C1120.27 287.444 1127.56 295.684 1137.05 301.633L1143.87 290.752ZM1126.74 271.556L1138.31 265.981C1135.36 259.869 1133.67 252.295 1133.67 242.909H1120.83H1107.99C1107.99 255.377 1110.24 266.901 1115.17 277.13L1126.74 271.556ZM1120.83 242.909H1133.67C1133.67 234.044 1135.36 226.614 1138.43 220.337L1126.89 214.705L1115.35 209.073C1110.34 219.334 1107.99 230.707 1107.99 242.909H1120.83ZM1126.89 214.705L1138.37 220.447C1141.46 214.261 1145.75 209.587 1151.34 206.149L1144.61 195.213L1137.88 184.277C1128.11 190.29 1120.58 198.61 1115.4 208.962L1126.89 214.705ZM1144.61 195.213L1151.44 206.086C1156.7 202.779 1163.48 200.818 1172.37 200.818V187.978V175.137C1159.6 175.137 1147.87 178 1137.78 184.34L1144.61 195.213ZM1172.37 187.978V200.818C1180.62 200.818 1186.65 202.147 1190.98 204.178L1196.44 192.555L1201.9 180.933C1193.22 176.86 1183.21 175.137 1172.37 175.137V187.978ZM1196.44 192.555L1191.19 204.275C1195.73 206.309 1199.12 209.149 1201.67 212.84L1212.24 205.55L1222.81 198.26C1217.48 190.531 1210.33 184.708 1201.68 180.836L1196.44 192.555ZM1212.24 205.55L1201.75 212.962C1204.6 216.996 1206.85 222.18 1208.23 228.829L1220.8 226.223L1233.37 223.616C1231.41 214.121 1227.94 205.523 1222.72 198.138L1212.24 205.55ZM1220.8 226.223L1220.3 213.392L1190.32 214.573L1190.83 227.404L1191.33 240.235L1221.31 239.053L1220.8 226.223ZM1190.83 227.404L1203.48 225.254C1202.29 218.229 1199.52 211.41 1194.13 206.206L1185.21 215.443L1176.3 224.681C1176.61 224.989 1177.59 226.145 1178.17 229.554L1190.83 227.404ZM1185.21 215.443L1194.29 206.363C1188.26 200.328 1180.31 198.32 1172.66 198.32V211.161V224.002C1174.34 224.002 1175.32 224.223 1175.79 224.384C1176.2 224.525 1176.22 224.611 1176.13 224.523L1185.21 215.443ZM1172.66 211.161V198.32C1165.36 198.32 1158.43 200.439 1152.57 205.092L1160.55 215.148L1168.54 225.204C1169.37 224.541 1170.51 224.002 1172.66 224.002V211.161ZM1160.55 215.148L1152.42 205.21C1147.1 209.568 1143.41 215.297 1141 221.714L1153.02 226.223L1165.05 230.731C1166.18 227.698 1167.51 226.044 1168.69 225.086L1160.55 215.148ZM1153.02 226.223L1140.92 221.936C1138.64 228.359 1137.67 235.434 1137.67 242.909H1150.51H1163.35C1163.35 237.586 1164.05 233.537 1165.13 230.51L1153.02 226.223ZM1150.51 242.909H1137.67C1137.67 250.241 1138.58 257.179 1140.69 263.508L1152.88 259.447L1165.06 255.387C1164.02 252.265 1163.35 248.177 1163.35 242.909H1150.51ZM1152.88 259.447L1140.77 263.734C1143.11 270.332 1146.88 276.178 1152.42 280.578L1160.41 270.522L1168.39 260.466C1167.24 259.55 1165.99 258.013 1164.98 255.16L1152.88 259.447ZM1160.41 270.522L1152.61 280.722C1158.68 285.369 1165.9 287.202 1173.25 287.202V274.361V261.521C1170.17 261.521 1168.82 260.795 1168.21 260.322L1160.41 270.522ZM1173.25 274.361V287.202C1178.23 287.202 1183.27 286.401 1187.94 284.248L1182.56 272.589L1177.18 260.931C1176.72 261.141 1175.56 261.521 1173.25 261.521V274.361ZM1182.56 272.589L1188.13 284.159C1192.64 281.988 1196.52 278.814 1199.45 274.606L1188.91 267.273L1178.36 259.941C1178.14 260.262 1177.79 260.631 1176.99 261.02L1182.56 272.589ZM1188.91 267.273L1199.38 274.696C1202.36 270.49 1204.1 265.741 1204.85 260.78L1192.15 258.857L1179.46 256.933C1179.23 258.47 1178.8 259.332 1178.43 259.851L1188.91 267.273ZM1192.15 258.857V246.016H1172.52V258.857V271.697H1192.15V258.857ZM1172.52 258.857H1185.36V239.66H1172.52H1159.67V258.857H1172.52ZM1172.52 239.66V252.501H1221.1V239.66V226.82H1172.52V239.66ZM1221.1 239.66H1208.26V295.182H1221.1H1233.94V239.66H1221.1ZM1221.1 295.182V282.341H1204.26V295.182V308.023H1221.1V295.182ZM1204.26 295.182L1217.07 294.293L1215.6 273.029L1202.79 273.918L1189.98 274.808L1191.45 296.072L1204.26 295.182ZM1202.79 273.918L1200.49 286.552L1203.74 287.143L1206.03 274.509L1208.33 261.876L1205.08 261.285L1202.79 273.918ZM1206.03 274.509L1193.42 272.094C1193.02 274.207 1192.11 275.986 1190.47 277.67L1199.69 286.618L1208.9 295.565C1213.95 290.358 1217.28 284.065 1218.65 276.924L1206.03 274.509ZM1199.69 286.618L1190.34 277.809C1188.61 279.649 1186.13 281.367 1182.52 282.754L1187.13 294.739L1191.74 306.724C1198.37 304.173 1204.27 300.477 1209.03 295.426L1199.69 286.618ZM1187.13 294.739L1182.65 282.706C1179.27 283.966 1175.21 284.704 1170.3 284.704V297.545V310.385C1177.8 310.385 1184.96 309.254 1191.62 306.772L1187.13 294.739ZM1235.96 295.182H1223.12V308.023H1235.96V295.182ZM1235.96 215.443V202.603H1223.12V215.443H1235.96ZM1264.61 215.443H1277.45V202.603H1264.61V215.443ZM1264.61 295.182V308.023H1277.45V295.182H1264.61ZM1235.52 207.469H1222.68V220.31H1235.52V207.469ZM1235.52 187.387V174.546H1222.68V187.387H1235.52ZM1265.05 187.387H1277.89V174.546H1265.05V187.387ZM1265.05 207.469V220.31H1277.89V207.469H1265.05ZM1235.96 295.182H1248.8V215.443H1235.96H1223.12V295.182H1235.96ZM1235.96 215.443V228.284H1264.61V215.443V202.603H1235.96V215.443ZM1264.61 215.443H1251.77V295.182H1264.61H1277.45V215.443H1264.61ZM1264.61 295.182V282.341H1235.96V295.182V308.023H1264.61V295.182ZM1235.52 207.469H1248.36V187.387H1235.52H1222.68V207.469H1235.52ZM1235.52 187.387V200.228H1265.05V187.387V174.546H1235.52V187.387ZM1265.05 187.387H1252.21V207.469H1265.05H1277.89V187.387H1265.05ZM1265.05 207.469V194.629H1235.52V207.469V220.31H1265.05V207.469ZM1293.88 288.98L1284.69 297.952L1284.74 298.007L1284.8 298.06L1293.88 288.98ZM1287.68 196.69V183.849H1274.83V196.69H1287.68ZM1316.32 196.69H1329.16V183.849H1316.32V196.69ZM1318.68 272.885L1309.9 282.252L1310.2 282.535L1310.52 282.797L1318.68 272.885ZM1337.14 274.952H1349.98V262.111H1337.14V274.952ZM1337.14 295.182V308.023H1349.98V295.182H1337.14ZM1274.09 235.673H1261.25V248.514H1274.09V235.673ZM1274.09 215.443V202.603H1261.25V215.443H1274.09ZM1337.14 215.443H1349.98V202.603H1337.14V215.443ZM1337.14 235.673V248.514H1349.98V235.673H1337.14ZM1313.52 295.182V282.341C1306.19 282.341 1303.67 280.61 1302.96 279.901L1293.88 288.98L1284.8 298.06C1292.36 305.62 1302.93 308.023 1313.52 308.023V295.182ZM1293.88 288.98L1303.06 280.008C1302.28 279.203 1300.52 276.484 1300.52 268.898H1287.68H1274.83C1274.83 279.622 1277.21 290.291 1284.69 297.952L1293.88 288.98ZM1287.68 268.898H1300.52V196.69H1287.68H1274.83V268.898H1287.68ZM1287.68 196.69V209.53H1316.32V196.69V183.849H1287.68V196.69ZM1316.32 196.69H1303.48V264.763H1316.32H1329.16V196.69H1316.32ZM1316.32 264.763H1303.48C1303.48 269.571 1304.28 276.981 1309.9 282.252L1318.68 272.885L1327.47 263.517C1328.8 264.764 1329.18 265.963 1329.24 266.16C1329.28 266.274 1329.25 266.229 1329.22 265.974C1329.19 265.724 1329.16 265.328 1329.16 264.763H1316.32ZM1318.68 272.885L1310.52 282.797C1315.45 286.858 1321.43 287.793 1326.22 287.793V274.952V262.111C1325.38 262.111 1325.11 262.021 1325.22 262.053C1325.37 262.092 1326.04 262.305 1326.85 262.973L1318.68 272.885ZM1326.22 274.952V287.793H1337.14V274.952V262.111H1326.22V274.952ZM1337.14 274.952H1324.3V295.182H1337.14H1349.98V274.952H1337.14ZM1337.14 295.182V282.341H1313.52V295.182V308.023H1337.14V295.182ZM1274.09 235.673H1286.93V215.443H1274.09H1261.25V235.673H1274.09ZM1274.09 215.443V228.284H1337.14V215.443V202.603H1274.09V215.443ZM1337.14 215.443H1324.3V235.673H1337.14H1349.98V215.443H1337.14ZM1337.14 235.673V222.833H1274.09V235.673V248.514H1337.14V235.673Z" fill="#19191D" mask="url(#path-11-outside-2_88_23)"/>
<ellipse cx="1038.23" cy="189.195" rx="11.9053" ry="7.21938" fill="#19191D"/>
<ellipse cx="1038.23" cy="252.917" rx="11.9053" ry="9.6681" fill="#19191D"/>
<ellipse cx="872.864" cy="221.44" rx="28.6236" ry="41.1457" fill="#19191D"/>
<path d="M164.109 100.76C164.652 94.3452 169.741 89.2562 176.156 88.7126L247.357 82.6786C279.031 79.9944 310.876 79.9944 342.55 82.6786L413.751 88.7126C420.166 89.2562 425.255 94.3452 425.799 100.76L431.833 171.961C434.517 203.635 434.517 235.48 431.833 267.154L425.799 338.355C425.255 344.77 420.166 349.859 413.751 350.403L342.55 356.437C310.876 359.121 279.031 359.121 247.357 356.437L176.156 350.403C169.741 349.859 164.652 344.77 164.109 338.355L158.075 267.154C155.39 235.48 155.39 203.635 158.075 171.961L164.109 100.76Z" fill="#19191D"/>
<path d="M323.882 217.396C324.526 216.751 324.526 215.706 323.882 215.061L271.763 162.943C271.119 162.298 271.119 161.252 271.763 160.607L300.015 132.356C300.66 131.711 301.705 131.711 302.35 132.356L385.054 215.06C385.699 215.705 385.699 216.75 385.054 217.395L302.349 300.1C301.704 300.745 300.659 300.745 300.014 300.1L271.763 271.849C271.119 271.205 271.119 270.159 271.763 269.514L323.882 217.396Z" fill="#666F76"/>
<path d="M228.261 178.459C228.261 177.478 229.447 176.987 230.14 177.681L267.909 215.449C268.339 215.879 268.339 216.576 267.909 217.006L230.14 254.775C229.447 255.469 228.261 254.977 228.261 253.997V178.459Z" fill="#666F76"/>
<path d="M260.312 360.47C260.312 341.338 275.821 325.828 294.954 325.828V325.828C314.086 325.828 329.596 341.338 329.596 360.47V360.47C329.596 379.603 314.086 395.113 294.954 395.113V395.113C275.821 395.113 260.312 379.603 260.312 360.47V360.47Z" fill="#666F76"/>
<path d="M310.882 360.47C310.881 348.634 306.79 344.543 294.954 344.543C283.117 344.543 279.027 348.634 279.026 360.47C279.026 372.307 283.117 376.398 294.954 376.398V395.113L294.506 395.11C275.58 394.87 260.312 379.453 260.312 360.47C260.312 341.338 275.821 325.828 294.954 325.828C314.086 325.828 329.596 341.338 329.597 360.47L329.593 360.918C329.354 379.844 313.937 395.113 294.954 395.113V376.398C306.79 376.398 310.882 372.307 310.882 360.47Z" fill="#19191D"/>
</g>
<defs>
<clipPath id="clip0_88_23">
<rect width="1560" height="488" fill="white"/>
</clipPath>
<pattern id="pattern0_88_23" patternUnits="userSpaceOnUse" patternTransform="matrix(-54.5272 54.5272 -27.2636 -27.2636 1083.88 619.45)" preserveAspectRatio="none" viewBox="1.57819 2.81104 77.113 38.5565" width="1" height="1">
<use xlink:href="#pattern0_88_23_inner" transform="translate(-38.5565 -19.2783)"/>
<use xlink:href="#pattern0_88_23_inner" transform="translate(0 -38.5565)"/>
<use xlink:href="#pattern0_88_23_inner" transform="translate(38.5565 -19.2783)"/>
<use xlink:href="#pattern0_88_23_inner" transform="translate(-38.5565 19.2783)"/>
<g id="pattern0_88_23_inner">
<path d="M17.8915 23.4579L13.7981 38.7344L10.6017 33.198L10.6473 33.005L12.1479 26.6049L5.81652 24.9085L5.71294 24.7291L3.21848 20.4099L2.61495 19.3646L17.8915 23.4579ZM30.4932 16.1815L37.0245 17.9315L40.2258 23.4764L24.9493 19.3831L29.0427 4.10652L29.6462 5.15186L32.1394 9.47171L32.243 9.65111L30.4932 16.1815Z" fill="#666F76" stroke="#666F76"/>
</g>
<use xlink:href="#pattern0_88_23_inner" transform="translate(38.5565 19.2783)"/>
</pattern><pattern id="pattern1_88_23" patternUnits="userSpaceOnUse" patternTransform="matrix(54.5272 54.5272 -27.2636 27.2636 317.335 -177.931)" preserveAspectRatio="none" viewBox="1.57819 2.81104 77.113 38.5565" width="1" height="1">
<use xlink:href="#pattern1_88_23_inner" transform="translate(-38.5565 -19.2783)"/>
<use xlink:href="#pattern1_88_23_inner" transform="translate(0 -38.5565)"/>
<use xlink:href="#pattern1_88_23_inner" transform="translate(38.5565 -19.2783)"/>
<use xlink:href="#pattern1_88_23_inner" transform="translate(-38.5565 19.2783)"/>
<g id="pattern1_88_23_inner">
<path d="M17.8915 23.4579L13.7981 38.7344L10.6017 33.198L10.6473 33.005L12.1479 26.6049L5.81652 24.9085L5.71294 24.7291L3.21848 20.4099L2.61495 19.3646L17.8915 23.4579ZM30.4932 16.1815L37.0245 17.9315L40.2258 23.4764L24.9493 19.3831L29.0427 4.10652L29.6462 5.15186L32.1394 9.47171L32.243 9.65111L30.4932 16.1815Z" fill="#666F76" stroke="#666F76"/>
</g>
<use xlink:href="#pattern1_88_23_inner" transform="translate(38.5565 19.2783)"/>
</pattern></defs>
</svg>
