<svg width="1024" height="488" viewBox="0 0 1024 488" fill="none" xmlns="http://www.w3.org/2000/svg">
<path d="M105.724 117.701C106.229 111.748 110.95 107.026 116.903 106.522L182.967 100.923C212.356 98.4327 241.903 98.4327 271.293 100.923L337.357 106.522C343.309 107.026 348.031 111.748 348.536 117.701L354.134 183.765C356.625 213.154 356.625 242.701 354.134 272.09L348.536 338.155C348.031 344.107 343.309 348.829 337.357 349.334L271.293 354.932C241.903 357.423 212.356 357.423 182.967 354.932L116.903 349.334C110.95 348.829 106.229 344.107 105.724 338.155L100.125 272.09C97.6348 242.701 97.6348 213.154 100.125 183.765L105.724 117.701Z" fill="#19191D"/>
<path d="M194.986 358.675C194.986 340.923 209.377 326.532 227.13 326.532C244.882 326.532 259.273 340.923 259.273 358.675C259.273 376.428 244.882 390.819 227.13 390.819C209.377 390.819 194.986 376.428 194.986 358.675Z" fill="#FF0088"/>
<path d="M241.908 358.675C241.908 347.693 238.112 343.897 227.129 343.897C216.147 343.897 212.351 347.693 212.351 358.675C212.351 369.658 216.147 373.454 227.129 373.454V390.819L226.714 390.816C209.153 390.593 194.986 376.289 194.986 358.675C194.986 340.923 209.377 326.532 227.129 326.532C244.882 326.532 259.273 340.923 259.273 358.675L259.27 359.091C259.048 376.652 244.743 390.819 227.129 390.819V373.454C238.112 373.454 241.908 369.658 241.908 358.675Z" fill="#19191D"/>
<path d="M417.589 267.799V210.868H438.276L450.304 247.031L462.332 210.868H483.02V267.799H467.303V235.725L455.837 267.559H444.691L433.305 235.725V267.799H417.589ZM492.214 267.799V210.868H534.392V223.457H507.93V232.999H533.429V245.508H507.93V255.21H535.033V267.799H492.214ZM567.491 269.082C562.252 269.082 557.789 268.254 554.1 266.597C550.412 264.939 547.552 262.587 545.52 259.54C543.489 256.493 542.34 252.885 542.072 248.715L557.708 247.994C557.976 249.865 558.51 251.468 559.312 252.805C560.114 254.088 561.183 255.077 562.52 255.772C563.909 256.413 565.62 256.734 567.651 256.734C569.255 256.734 570.618 256.573 571.741 256.253C572.863 255.878 573.719 255.317 574.307 254.569C574.895 253.82 575.189 252.885 575.189 251.762C575.189 250.747 574.922 249.865 574.387 249.116C573.906 248.314 572.917 247.619 571.42 247.031C569.977 246.39 567.812 245.775 564.925 245.187C559.74 244.118 555.543 242.888 552.336 241.499C549.129 240.055 546.777 238.211 545.28 235.966C543.836 233.721 543.115 230.861 543.115 227.386C543.115 223.858 544.024 220.757 545.841 218.085C547.659 215.412 550.278 213.327 553.699 211.83C557.12 210.333 561.237 209.585 566.048 209.585C571.126 209.585 575.376 210.44 578.797 212.151C582.218 213.861 584.865 216.214 586.736 219.207C588.66 222.201 589.809 225.675 590.183 229.631L574.708 230.273C574.601 228.509 574.173 227.012 573.425 225.782C572.676 224.553 571.661 223.617 570.378 222.976C569.148 222.281 567.651 221.933 565.887 221.933C563.642 221.933 561.905 222.388 560.675 223.297C559.446 224.205 558.831 225.408 558.831 226.905C558.831 228.081 559.125 229.07 559.713 229.872C560.355 230.674 561.37 231.342 562.76 231.876C564.203 232.411 566.155 232.892 568.614 233.32C574.227 234.282 578.664 235.592 581.924 237.249C585.185 238.906 587.484 240.884 588.82 243.182C590.21 245.481 590.905 248.127 590.905 251.121C590.905 254.809 589.97 258.017 588.099 260.743C586.281 263.416 583.608 265.474 580.08 266.917C576.605 268.361 572.409 269.082 567.491 269.082ZM598.475 267.799V210.868H614.191V237.409L607.536 232.839H637.766L631.111 237.409V210.868H646.827V267.799H631.111V240.937L637.766 245.428H607.536L614.191 240.937V267.799H598.475ZM654.329 250.479V238.291H682.554V250.479H654.329ZM714.549 269.082C709.311 269.082 704.847 268.254 701.159 266.597C697.47 264.939 694.61 262.587 692.579 259.54C690.547 256.493 689.398 252.885 689.131 248.715L704.767 247.994C705.034 249.865 705.569 251.468 706.371 252.805C707.172 254.088 708.242 255.077 709.578 255.772C710.968 256.413 712.678 256.734 714.71 256.734C716.314 256.734 717.677 256.573 718.799 256.253C719.922 255.878 720.777 255.317 721.365 254.569C721.953 253.82 722.247 252.885 722.247 251.762C722.247 250.747 721.98 249.865 721.445 249.116C720.964 248.314 719.975 247.619 718.479 247.031C717.035 246.39 714.87 245.775 711.984 245.187C706.798 244.118 702.602 242.888 699.394 241.499C696.187 240.055 693.835 238.211 692.338 235.966C690.895 233.721 690.173 230.861 690.173 227.386C690.173 223.858 691.082 220.757 692.899 218.085C694.717 215.412 697.336 213.327 700.758 211.83C704.179 210.333 708.295 209.585 713.106 209.585C718.185 209.585 722.434 210.44 725.856 212.151C729.277 213.861 731.923 216.214 733.794 219.207C735.718 222.201 736.868 225.675 737.242 229.631L721.766 230.273C721.659 228.509 721.232 227.012 720.483 225.782C719.735 224.553 718.719 223.617 717.436 222.976C716.207 222.281 714.71 221.933 712.946 221.933C710.701 221.933 708.963 222.388 707.734 223.297C706.504 224.205 705.889 225.408 705.889 226.905C705.889 228.081 706.183 229.07 706.771 229.872C707.413 230.674 708.429 231.342 709.819 231.876C711.262 232.411 713.213 232.892 715.672 233.32C721.285 234.282 725.722 235.592 728.983 237.249C732.244 238.906 734.542 240.884 735.879 243.182C737.269 245.481 737.964 248.127 737.964 251.121C737.964 254.809 737.028 258.017 735.157 260.743C733.34 263.416 730.667 265.474 727.139 266.917C723.664 268.361 719.467 269.082 714.549 269.082ZM756.902 267.799V246.47L737.336 210.868H754.336L764.84 231.395L775.184 210.868H792.183L772.698 246.47V267.799H756.902ZM794.944 267.799V210.868H810.821L829.825 242.942V210.868H845.541V267.799H829.665L810.661 237.329V267.799H794.944ZM879.805 269.082C874.513 269.082 869.782 267.906 865.612 265.554C861.496 263.202 858.235 259.834 855.829 255.451C853.477 251.014 852.301 245.668 852.301 239.414C852.301 233.427 853.424 228.215 855.669 223.778C857.914 219.287 861.122 215.813 865.291 213.354C869.461 210.841 874.406 209.585 880.126 209.585C887.93 209.585 893.998 211.483 898.328 215.278C902.711 219.073 905.518 224.606 906.747 231.876L890.469 232.438C889.935 229.177 888.759 226.664 886.941 224.9C885.124 223.083 882.852 222.174 880.126 222.174C877.506 222.174 875.314 222.922 873.55 224.419C871.84 225.862 870.557 227.894 869.701 230.513C868.846 233.079 868.419 236.046 868.419 239.414C868.419 242.888 868.873 245.909 869.782 248.475C870.69 251.041 872 253.019 873.711 254.408C875.475 255.798 877.56 256.493 879.965 256.493C883.066 256.493 885.471 255.558 887.182 253.687C888.892 251.762 889.988 249.063 890.469 245.588L906.827 246.149C906.025 251.121 904.475 255.317 902.176 258.738C899.878 262.106 896.858 264.672 893.116 266.436C889.427 268.2 884.99 269.082 879.805 269.082Z" fill="#FF0088"/>
<path d="M434.032 190.706C432.902 191.18 431.716 191.53 430.474 191.756C429.232 192.005 427.91 192.129 426.51 192.129C423.912 192.129 421.687 191.643 419.834 190.672C418.005 189.723 416.593 188.334 415.599 186.504C414.628 184.675 414.142 182.483 414.142 179.931C414.142 177.627 414.503 175.526 415.226 173.628C415.949 171.731 416.977 170.093 418.31 168.715C419.665 167.315 421.258 166.242 423.087 165.496C424.917 164.728 426.939 164.344 429.153 164.344C431.705 164.344 433.93 164.841 435.828 165.835C437.725 166.829 439.194 168.23 440.233 170.037C441.272 171.844 441.791 173.979 441.791 176.441C441.791 178.248 441.52 179.84 440.978 181.218C440.436 182.596 439.691 183.681 438.742 184.471C437.793 185.239 436.697 185.623 435.455 185.623C434.416 185.623 433.557 185.318 432.88 184.708C432.225 184.099 431.863 183.274 431.796 182.235L432.304 182.099C432.033 182.755 431.604 183.364 431.016 183.929C430.429 184.494 429.762 184.946 429.017 185.285C428.272 185.601 427.504 185.759 426.713 185.759C425.38 185.759 424.251 185.499 423.325 184.98C422.421 184.46 421.732 183.737 421.258 182.811C420.783 181.885 420.546 180.812 420.546 179.592C420.546 178.079 420.84 176.701 421.427 175.458C422.037 174.216 422.873 173.233 423.934 172.51C425.019 171.765 426.284 171.392 427.729 171.392C428.927 171.392 429.943 171.663 430.779 172.205C431.637 172.725 432.18 173.414 432.405 174.272L432.067 174.611L432.304 171.46H434.777L434.235 178.575C434.213 179.072 434.167 179.637 434.1 180.27C434.054 180.902 434.032 181.422 434.032 181.828C434.032 182.325 434.167 182.709 434.438 182.98C434.71 183.251 435.116 183.387 435.658 183.387C436.81 183.387 437.714 182.777 438.369 181.557C439.024 180.337 439.352 178.666 439.352 176.542C439.352 174.442 438.956 172.657 438.166 171.189C437.375 169.72 436.212 168.614 434.676 167.868C433.162 167.1 431.299 166.716 429.085 166.716C427.232 166.716 425.538 167.032 424.002 167.665C422.466 168.297 421.145 169.201 420.038 170.376C418.931 171.528 418.073 172.906 417.463 174.509C416.875 176.113 416.582 177.898 416.582 179.863C416.582 181.964 416.966 183.76 417.734 185.251C418.524 186.719 419.665 187.837 421.156 188.605C422.647 189.373 424.454 189.757 426.577 189.757C427.797 189.757 428.994 189.633 430.169 189.384C431.366 189.159 432.462 188.831 433.456 188.402L434.032 190.706ZM427.052 183.523C428.181 183.523 429.096 183.251 429.796 182.709C430.519 182.145 431.05 181.433 431.389 180.575C431.75 179.694 431.931 178.79 431.931 177.864C431.931 177.073 431.796 176.362 431.524 175.729C431.276 175.074 430.858 174.566 430.271 174.204C429.706 173.82 428.949 173.628 428.001 173.628C426.984 173.628 426.126 173.9 425.425 174.442C424.748 174.961 424.228 175.661 423.867 176.542C423.505 177.401 423.325 178.35 423.325 179.389C423.325 180.563 423.596 181.546 424.138 182.337C424.702 183.127 425.674 183.523 427.052 183.523ZM446.815 193.484V190.977H448.882C449.514 190.977 449.977 190.875 450.271 190.672C450.587 190.491 450.824 190.186 450.982 189.757L451.626 188.063H450.644L444.07 170.443H447.187L452.541 185.42L457.657 170.443H460.775L453.49 190.672C453.151 191.643 452.643 192.355 451.965 192.807C451.287 193.259 450.35 193.484 449.153 193.484H446.815ZM468.319 188.808C466.467 188.808 464.987 188.379 463.88 187.521C462.796 186.662 462.254 185.465 462.254 183.929C462.254 182.393 462.706 181.185 463.609 180.304C464.513 179.423 465.947 178.801 467.912 178.44L474.283 177.254C474.283 175.741 473.921 174.611 473.198 173.866C472.498 173.12 471.436 172.747 470.013 172.747C468.771 172.747 467.788 173.03 467.065 173.595C466.342 174.137 465.846 174.927 465.574 175.966L462.559 175.729C462.898 174.035 463.711 172.668 464.998 171.629C466.309 170.568 467.98 170.037 470.013 170.037C472.317 170.037 474.079 170.692 475.299 172.002C476.519 173.29 477.129 175.074 477.129 177.356V184.776C477.129 185.183 477.197 185.477 477.332 185.657C477.49 185.815 477.739 185.894 478.078 185.894H478.789V188.402C478.699 188.424 478.552 188.436 478.349 188.436C478.145 188.458 477.931 188.47 477.705 188.47C476.892 188.47 476.225 188.345 475.706 188.097C475.209 187.826 474.847 187.419 474.621 186.877C474.396 186.312 474.283 185.578 474.283 184.675L474.621 184.742C474.463 185.51 474.079 186.211 473.469 186.843C472.859 187.453 472.103 187.939 471.199 188.3C470.296 188.639 469.336 188.808 468.319 188.808ZM468.59 186.301C469.787 186.301 470.804 186.075 471.64 185.623C472.498 185.149 473.153 184.516 473.605 183.726C474.057 182.913 474.283 182.009 474.283 181.015V179.728L468.455 180.812C467.235 181.038 466.388 181.388 465.913 181.862C465.461 182.314 465.236 182.913 465.236 183.658C465.236 184.494 465.529 185.149 466.117 185.623C466.726 186.075 467.551 186.301 468.59 186.301ZM488.952 188.808C487.303 188.808 485.857 188.424 484.615 187.656C483.372 186.888 482.412 185.804 481.734 184.404C481.057 182.98 480.718 181.32 480.718 179.423C480.718 177.503 481.057 175.842 481.734 174.442C482.412 173.041 483.372 171.957 484.615 171.189C485.857 170.421 487.303 170.037 488.952 170.037C490.601 170.037 492.035 170.421 493.255 171.189C494.497 171.957 495.457 173.041 496.135 174.442C496.813 175.842 497.152 177.503 497.152 179.423C497.152 181.32 496.813 182.98 496.135 184.404C495.457 185.804 494.497 186.888 493.255 187.656C492.035 188.424 490.601 188.808 488.952 188.808ZM488.952 186.098C490.601 186.098 491.877 185.51 492.781 184.336C493.707 183.139 494.17 181.501 494.17 179.423C494.17 177.344 493.707 175.718 492.781 174.543C491.877 173.346 490.601 172.747 488.952 172.747C487.303 172.747 486.015 173.346 485.089 174.543C484.163 175.718 483.7 177.344 483.7 179.423C483.7 181.501 484.163 183.139 485.089 184.336C486.015 185.51 487.303 186.098 488.952 186.098ZM507.57 188.808C505.966 188.808 504.6 188.549 503.47 188.029C502.363 187.51 501.494 186.798 500.861 185.894C500.251 184.968 499.901 183.918 499.811 182.743L502.793 182.54C502.973 183.624 503.436 184.494 504.182 185.149C504.927 185.781 506.057 186.098 507.57 186.098C508.79 186.098 509.761 185.906 510.484 185.522C511.23 185.115 511.602 184.471 511.602 183.59C511.602 183.116 511.489 182.721 511.264 182.404C511.038 182.088 510.597 181.817 509.942 181.591C509.287 181.343 508.316 181.106 507.028 180.88C505.311 180.563 503.956 180.179 502.962 179.728C501.991 179.253 501.29 178.677 500.861 177.999C500.455 177.299 500.251 176.475 500.251 175.526C500.251 173.922 500.839 172.612 502.013 171.595C503.188 170.556 504.859 170.037 507.028 170.037C508.496 170.037 509.727 170.308 510.721 170.85C511.738 171.369 512.529 172.07 513.093 172.951C513.681 173.809 514.065 174.758 514.245 175.797L511.264 176C511.128 175.368 510.88 174.814 510.518 174.34C510.157 173.843 509.682 173.459 509.095 173.188C508.508 172.894 507.807 172.747 506.994 172.747C505.707 172.747 504.758 172.996 504.148 173.493C503.538 173.99 503.233 174.622 503.233 175.39C503.233 175.978 503.369 176.463 503.64 176.847C503.933 177.209 504.396 177.514 505.029 177.762C505.661 177.988 506.509 178.191 507.57 178.372C509.4 178.688 510.823 179.072 511.84 179.524C512.856 179.976 513.568 180.529 513.974 181.185C514.381 181.84 514.584 182.642 514.584 183.59C514.584 184.697 514.268 185.646 513.635 186.437C513.026 187.205 512.19 187.792 511.128 188.199C510.089 188.605 508.903 188.808 507.57 188.808ZM517.58 179.863V177.186H528.796V179.863H517.58ZM539.806 193.891C538.518 193.891 537.355 193.676 536.316 193.247C535.277 192.818 534.407 192.208 533.707 191.418C533.007 190.627 532.532 189.712 532.284 188.673L535.266 188.47C535.537 189.305 536.011 189.961 536.689 190.435C537.389 190.932 538.428 191.18 539.806 191.18C541.432 191.18 542.675 190.853 543.533 190.198C544.414 189.543 544.855 188.56 544.855 187.25V184.336C544.426 185.285 543.737 186.041 542.788 186.606C541.839 187.171 540.777 187.453 539.603 187.453C538.089 187.453 536.734 187.08 535.537 186.335C534.362 185.589 533.436 184.562 532.758 183.251C532.103 181.941 531.776 180.439 531.776 178.745C531.776 177.028 532.103 175.526 532.758 174.238C533.413 172.928 534.317 171.9 535.469 171.155C536.644 170.409 537.976 170.037 539.467 170.037C540.732 170.037 541.862 170.33 542.856 170.918C543.872 171.505 544.584 172.296 544.99 173.29V170.443H547.701V187.182C547.701 188.583 547.385 189.78 546.752 190.774C546.12 191.79 545.216 192.558 544.042 193.078C542.867 193.62 541.455 193.891 539.806 193.891ZM539.738 184.742C541.274 184.742 542.505 184.212 543.432 183.15C544.358 182.066 544.832 180.597 544.855 178.745C544.877 177.503 544.674 176.441 544.245 175.56C543.838 174.656 543.24 173.967 542.449 173.493C541.681 172.996 540.777 172.747 539.738 172.747C538.157 172.747 536.926 173.29 536.045 174.374C535.187 175.436 534.757 176.893 534.757 178.745C534.757 180.597 535.198 182.066 536.079 183.15C536.982 184.212 538.202 184.742 539.738 184.742ZM552.618 188.402V170.443H555.464V188.402H552.618ZM552.55 167.631V164.31H555.532V167.631H552.55ZM566.107 188.402C564.48 188.402 563.272 188.029 562.481 187.284C561.713 186.538 561.329 185.375 561.329 183.794V166.242H564.176V183.726C564.176 184.539 564.356 185.104 564.718 185.42C565.079 185.736 565.633 185.894 566.378 185.894H568.953V188.402H566.107ZM558.686 172.951V170.443H568.953V172.951H558.686ZM571.778 192.129L581.774 162.989H584.484L574.489 192.129H571.778Z" fill="#666F76"/>
<path d="M255.459 195.915C255.459 196.877 256.239 197.658 257.202 197.658H291.199C292.161 197.658 292.941 198.438 292.941 199.4V290.057C292.941 291.019 292.161 291.799 291.199 291.799H200.542C199.58 291.799 198.8 291.019 198.8 290.057V259.636C198.8 258.673 198.02 257.893 197.057 257.893H163.06C162.098 257.893 161.317 257.113 161.317 256.15V165.494C161.317 164.532 162.098 163.751 163.06 163.751H253.716C254.679 163.751 255.459 164.532 255.459 165.494V195.915Z" fill="#FF0088"/>
</svg>
